<svg width="206" height="90" viewBox="0 0 206 90" fill="none" xmlns="http://www.w3.org/2000/svg">
<g clip-path="url(#clip0_2002_406)">
<path d="M3.07559 66.088C2.8256 66.088 2.56425 66.088 2.29154 66.0956C2.01883 66.0993 1.74612 66.1107 1.4734 66.1259C1.20069 66.141 0.935554 66.1562 0.681781 66.1751C0.428007 66.194 0.200746 66.2168 0 66.2471C0.0492397 66.0728 0.0719657 65.9213 0.0719657 65.7888C0.0719657 65.6827 0.0492397 65.535 0 65.3418C0.632541 65.3607 1.24993 65.3759 1.85217 65.391C2.45441 65.4062 3.0718 65.4138 3.70434 65.4138C4.33688 65.4138 4.95427 65.4062 5.55651 65.391C6.15875 65.3759 6.77614 65.3607 7.40868 65.3418C7.35944 65.535 7.33672 65.6865 7.33672 65.8001C7.33672 65.9251 7.35944 66.0728 7.40868 66.2471C7.20793 66.2168 6.98068 66.194 6.7269 66.1751C6.47313 66.1562 6.20799 66.141 5.93528 66.1259C5.66257 66.1107 5.38985 66.1031 5.11714 66.0956C4.84443 66.0918 4.58308 66.088 4.33309 66.088C4.30279 67.0728 4.29143 68.0652 4.29143 69.0613V71.5347C4.29143 72.1673 4.30279 72.7885 4.32931 73.4021C4.35203 74.0157 4.37855 74.6179 4.40885 75.2126C4.18916 75.1937 3.95433 75.1823 3.70434 75.1823C3.45435 75.1823 3.21952 75.1937 2.99983 75.2126C3.03014 74.6179 3.05665 74.0157 3.07938 73.4021C3.1021 72.7885 3.11725 72.1673 3.11725 71.5347V69.0613C3.11725 68.0652 3.1021 67.0728 3.07559 66.088Z" fill="white"/>
<path d="M8.97312 67.4554C8.96934 67.0728 8.96176 66.6941 8.9504 66.3191C8.93903 65.9441 8.92767 65.588 8.91631 65.2471C8.90116 64.9063 8.88601 64.6184 8.86707 64.376C9.13599 64.4252 9.35189 64.4479 9.51476 64.4479C9.67763 64.4479 9.89353 64.4252 10.1625 64.376C10.1435 64.6146 10.1284 64.9025 10.1132 65.2396C10.0981 65.5767 10.0867 65.9289 10.0791 66.2963C10.0678 66.6638 10.064 67.035 10.0564 67.4099C10.0526 67.7849 10.0488 68.1296 10.0488 68.444V69.5348H10.0791C10.348 69.122 10.67 68.8038 11.0412 68.5803C11.4162 68.3569 11.8593 68.2432 12.3782 68.2432C12.6472 68.2432 12.9161 68.2811 13.1888 68.3569C13.4615 68.4326 13.7077 68.5652 13.9274 68.7508C14.1471 68.9364 14.3289 69.1902 14.4652 69.5121C14.6054 69.8341 14.6736 70.2431 14.6736 70.7393C14.6736 71.1522 14.6622 71.5764 14.6433 72.012C14.6243 72.4476 14.613 72.9097 14.613 73.3983V74.3339C14.613 74.4892 14.613 74.6369 14.6205 74.7884C14.6243 74.9361 14.6319 75.0801 14.6433 75.2126C14.4501 75.1937 14.2493 75.1823 14.041 75.1823C13.8327 75.1823 13.6433 75.1937 13.4501 75.2126C13.4691 74.7165 13.4918 74.2013 13.5145 73.6748C13.5373 73.1483 13.5524 72.6067 13.5524 72.0499V71.1749C13.5524 70.4553 13.4123 69.9136 13.1358 69.5424C12.8593 69.175 12.4729 68.9894 11.9843 68.9894C11.3139 68.9894 10.8215 69.194 10.5109 69.6068C10.2003 70.0197 10.045 70.5992 10.045 71.3454C10.045 71.6143 10.045 71.9249 10.0526 72.2809C10.0564 72.637 10.064 72.993 10.0753 73.3529C10.0829 73.7127 10.0981 74.0612 10.1094 74.3945C10.1246 74.7316 10.1397 75.0043 10.1587 75.2126C9.93898 75.1937 9.72308 75.1823 9.51097 75.1823C9.29886 75.1823 9.08297 75.1937 8.86328 75.2126C8.88222 74.993 8.90116 74.7164 8.91252 74.3793C8.92767 74.0422 8.93904 73.69 8.94661 73.315C8.95797 72.94 8.96176 72.5612 8.96934 72.1787C8.97312 71.7961 8.97691 71.4401 8.97691 71.1143V68.5122C8.97691 68.1864 8.97691 67.8304 8.96934 67.4478L8.97312 67.4554Z" fill="white"/>
<path d="M16.9878 72.0233C16.9878 70.8453 17.2681 69.9211 17.8287 69.2507C18.3892 68.5803 19.2074 68.2432 20.2793 68.2432C20.7868 68.2432 21.2262 68.3227 21.5936 68.4818C21.961 68.6409 22.2716 68.8492 22.5216 69.1143C22.7716 69.3795 22.9534 69.6863 23.0746 70.0423C23.1958 70.3984 23.2526 70.7734 23.2526 71.1786C23.2526 71.2733 23.2526 71.368 23.245 71.4589C23.2412 71.5498 23.2337 71.6445 23.2223 71.7392C22.7034 71.7279 22.1921 71.7203 21.6845 71.7089C21.177 71.6976 20.6656 71.6938 20.1467 71.6938C19.8323 71.6938 19.518 71.6976 19.2036 71.7089C18.893 71.7203 18.5786 71.7279 18.2642 71.7392C18.2529 71.7885 18.2491 71.8604 18.2491 71.9551V72.1407C18.2491 72.5157 18.3059 72.8642 18.4157 73.1899C18.5256 73.5157 18.6847 73.796 18.8968 74.0308C19.1089 74.2656 19.3664 74.4512 19.6733 74.5914C19.9801 74.7315 20.3323 74.7997 20.7376 74.7997C20.9308 74.7997 21.1239 74.7732 21.3285 74.7202C21.5292 74.6671 21.7262 74.5952 21.9193 74.5043C22.1125 74.4134 22.2905 74.3073 22.4572 74.1823C22.6238 74.0573 22.7716 73.9247 22.8966 73.7808L22.9685 73.8225L22.8814 74.527C22.5935 74.758 22.2375 74.955 21.8095 75.1179C21.3815 75.2807 20.9383 75.3603 20.48 75.3603C19.9611 75.3603 19.4914 75.2807 19.0634 75.1217C18.6354 74.9626 18.268 74.7353 17.9574 74.4323C17.6468 74.1293 17.4044 73.7732 17.2378 73.3604C17.0711 72.9475 16.9878 72.5043 16.9878 72.0233ZM20.3058 68.7053C19.9498 68.7053 19.6505 68.7886 19.4081 68.9477C19.1657 69.1106 18.9612 69.3151 18.8059 69.5575C18.6506 69.7999 18.5294 70.0688 18.446 70.3605C18.3627 70.6522 18.3135 70.9287 18.2945 71.1862C18.59 71.1976 18.9006 71.2052 19.2225 71.2165C19.5445 71.2279 19.8588 71.2317 20.1619 71.2317C20.4649 71.2317 20.7982 71.2279 21.1239 71.2165C21.4497 71.2052 21.764 71.1976 22.0708 71.1862C22.0708 70.9287 22.0481 70.6559 22.0065 70.3681C21.9648 70.0802 21.8777 69.8113 21.7489 69.5613C21.6201 69.3113 21.4383 69.1068 21.211 68.9439C20.98 68.781 20.6808 68.7015 20.3058 68.7015V68.7053Z" fill="white"/>
<path d="M30.9074 74.0157C30.8809 73.2013 30.8278 72.4438 30.7483 71.7355C31.2066 71.8188 31.5778 71.8605 31.8581 71.8605C31.9907 71.8605 32.1346 71.8491 32.2899 71.8226C32.4452 71.7961 32.6308 71.7695 32.8429 71.7355C32.7936 72.3945 32.7671 73.0498 32.7671 73.7089H32.8164C33.6875 72.2317 34.9109 71.4893 36.4904 71.4893C36.8995 71.4893 37.3048 71.5499 37.6987 71.6749C38.0926 71.7998 38.4524 71.9665 38.7706 72.1786C39.0925 72.3907 39.3652 72.6521 39.5963 72.9551C39.8273 73.2581 39.9826 73.5839 40.066 73.9285H40.1152C40.5091 73.1407 41.047 72.5347 41.7288 72.118C42.4105 71.6976 43.1946 71.4893 44.0809 71.4893C44.6225 71.4893 45.1225 71.565 45.5846 71.7127C46.0429 71.8605 46.4444 72.0915 46.7815 72.4021C47.1186 72.7127 47.38 73.118 47.5693 73.6104C47.7587 74.1028 47.8534 74.6937 47.8534 75.3868C47.8534 75.6671 47.8458 75.9701 47.8269 76.2997C47.8117 76.6292 47.7928 77.0118 47.7777 77.4473C47.7625 77.8829 47.7436 78.3753 47.7284 78.9245C47.7133 79.4738 47.7019 80.1101 47.7019 80.8336C47.7019 81.2767 47.7057 81.7047 47.7133 82.1138C47.7208 82.5229 47.7436 82.9698 47.7739 83.4433C47.5921 83.4092 47.414 83.3941 47.2322 83.3941H46.1717C45.9899 83.3941 45.8081 83.4092 45.6301 83.4433C45.6793 83.0342 45.7323 82.2047 45.7891 80.9548C45.8459 79.7048 45.8763 77.9625 45.8763 75.7277C45.8763 75.3186 45.8308 74.9323 45.7399 74.5687C45.649 74.2088 45.5051 73.8945 45.3081 73.6331C45.1111 73.3717 44.846 73.1596 44.5203 73.0043C44.1907 72.849 43.7817 72.7695 43.2893 72.7695C42.6984 72.7695 42.1946 72.8831 41.7856 73.1142C41.3727 73.3452 41.0545 73.6142 40.8235 73.9285C40.6909 74.1104 40.5887 74.2884 40.5167 74.4702C40.4409 74.652 40.3841 74.9247 40.3425 75.2959C40.3008 75.6671 40.2743 76.1822 40.2553 76.8489C40.2402 77.5155 40.2288 78.4321 40.2288 79.5988C40.2288 80.3071 40.2402 80.951 40.2667 81.5343C40.2932 82.1176 40.3197 82.7539 40.3538 83.4433C39.9751 83.4092 39.6152 83.3941 39.2706 83.3941C38.9259 83.3941 38.5623 83.4092 38.1873 83.4433C38.2706 82.538 38.3274 81.6176 38.3615 80.682C38.3956 79.7465 38.4108 78.8261 38.4108 77.9208C38.4108 77.1481 38.407 76.5459 38.3994 76.1103C38.3918 75.6747 38.3691 75.33 38.3388 75.0762C38.3047 74.8225 38.2592 74.6141 38.2024 74.4475C38.1456 74.2846 38.0661 74.1028 37.9676 73.9058C37.7858 73.5952 37.5017 73.3263 37.1154 73.1028C36.729 72.8793 36.3313 72.7695 35.9185 72.7695C34.8352 72.7695 34.036 73.1218 33.5284 73.8301C33.0171 74.5384 32.7633 75.5307 32.7633 76.811V78.9056C32.7633 79.6442 32.7747 80.4207 32.8012 81.2351C32.8277 82.0494 32.8808 82.7842 32.9603 83.4395C32.5815 83.4054 32.2103 83.3903 31.8505 83.3903C31.4907 83.3903 31.1195 83.4054 30.7407 83.4395C30.8241 82.7842 30.8771 82.0456 30.8998 81.2351C30.9263 80.4207 30.9377 79.6442 30.9377 78.9056V76.3413C30.9377 75.6027 30.9263 74.8262 30.8998 74.0119L30.9074 74.0157Z" fill="white"/>
<path d="M52.8076 77.6255C52.8076 76.5081 52.9856 75.5574 53.3379 74.7771C53.6901 73.9969 54.156 73.3643 54.7318 72.8795C55.3075 72.3947 55.9514 72.0424 56.6673 71.8189C57.3831 71.5954 58.0914 71.4856 58.7997 71.4856C59.508 71.4856 60.239 71.5954 60.9435 71.8189C61.648 72.0424 62.2919 72.3947 62.8677 72.8795C63.4434 73.3643 63.9055 73.9969 64.2615 74.7771C64.6138 75.5574 64.7918 76.5081 64.7918 77.6255C64.7918 78.7429 64.6138 79.6936 64.2615 80.4739C63.9093 81.2541 63.4434 81.8867 62.8677 82.3715C62.2919 82.8563 61.6518 83.1972 60.9435 83.3942C60.2352 83.5911 59.5232 83.6896 58.7997 83.6896C58.0763 83.6896 57.3831 83.5911 56.6673 83.3942C55.9514 83.1972 55.3075 82.8563 54.7318 82.3715C54.156 81.8867 53.6939 81.2541 53.3379 80.4739C52.9856 79.6936 52.8076 78.7429 52.8076 77.6255ZM54.9742 77.6255C54.9742 78.3149 55.0348 78.9815 55.1598 79.6216C55.2848 80.2617 55.4931 80.8337 55.7885 81.3337C56.0839 81.8336 56.4779 82.2351 56.9703 82.5306C57.4627 82.826 58.0725 82.9737 58.7959 82.9737C59.5194 82.9737 60.1254 82.826 60.6216 82.5306C61.114 82.2351 61.5079 81.8374 61.8033 81.3337C62.0988 80.8337 62.3071 80.2617 62.4321 79.6216C62.5571 78.9815 62.6177 78.3149 62.6177 77.6255C62.6177 76.9361 62.5571 76.2695 62.4321 75.6294C62.3071 74.9892 62.0988 74.4173 61.8033 73.9173C61.5079 73.4173 61.114 73.0158 60.6216 72.7204C60.1292 72.425 59.5194 72.2772 58.7959 72.2772C58.0725 72.2772 57.4665 72.425 56.9703 72.7204C56.4779 73.0158 56.0839 73.4135 55.7885 73.9173C55.4931 74.4173 55.2848 74.9892 55.1598 75.6294C55.0348 76.2695 54.9742 76.9361 54.9742 77.6255Z" fill="white"/>
<path d="M70.553 77.33C70.553 76.8376 70.5492 76.3376 70.5416 75.8263C70.5341 75.3187 70.5265 74.8149 70.5151 74.3225C70.5075 73.8301 70.4886 73.3605 70.4659 72.9173C70.4394 72.4741 70.4053 72.0802 70.356 71.7355C70.8143 71.8189 71.1855 71.8605 71.4658 71.8605C71.7461 71.8605 72.1135 71.8189 72.5756 71.7355C72.4923 72.4438 72.4393 73.2014 72.4165 74.0157C72.3938 74.8301 72.3786 75.6066 72.3786 76.3452V78.9095C72.3786 79.864 72.3938 80.8071 72.4279 81.7427C72.462 82.6783 72.4771 83.5987 72.4771 84.5039C72.4771 85.1933 72.4393 85.8296 72.3673 86.4129C72.2915 86.9963 72.0681 87.5682 71.6893 88.125C71.3295 88.6515 70.8371 89.0871 70.2235 89.4318C69.6061 89.7764 68.9054 89.9658 68.1175 89.9999L68.019 89.1628C68.019 89.1628 68.0721 89.1931 68.1289 89.2007C68.1857 89.2083 68.2577 89.2121 68.3372 89.2121C68.8145 89.2121 69.197 89.0719 69.4849 88.7916C69.7727 88.5113 70 88.1515 70.1629 87.7083C70.3257 87.2652 70.4356 86.769 70.4848 86.216C70.5341 85.6668 70.5606 85.1175 70.5606 84.5759V77.33H70.553ZM70.2083 67.444C70.2083 67.0994 70.3333 66.8039 70.5795 66.5577C70.8257 66.3115 71.1211 66.1865 71.4658 66.1865C71.8105 66.1865 72.1059 66.3115 72.3521 66.5577C72.5983 66.8039 72.7233 67.0994 72.7233 67.444C72.7233 67.7887 72.5983 68.0842 72.3521 68.3304C72.1059 68.5766 71.8105 68.7016 71.4658 68.7016C71.1211 68.7016 70.8257 68.5766 70.5795 68.3304C70.3333 68.0842 70.2083 67.7887 70.2083 67.444Z" fill="white"/>
<path d="M78.147 77.6255C78.147 76.5081 78.325 75.5574 78.6772 74.7771C79.0295 73.9969 79.4954 73.3643 80.0711 72.8795C80.6468 72.3947 81.2907 72.0424 82.0066 71.8189C82.7225 71.5954 83.4308 71.4856 84.1391 71.4856C84.8474 71.4856 85.5784 71.5954 86.2829 71.8189C86.9874 72.0424 87.6313 72.3947 88.207 72.8795C88.7827 73.3643 89.2448 73.9969 89.6009 74.7771C89.9531 75.5574 90.1312 76.5081 90.1312 77.6255C90.1312 78.7429 89.9531 79.6936 89.6009 80.4739C89.2486 81.2541 88.7827 81.8867 88.207 82.3715C87.6313 82.8563 86.9912 83.1972 86.2829 83.3942C85.5746 83.5911 84.8625 83.6896 84.1391 83.6896C83.4156 83.6896 82.7225 83.5911 82.0066 83.3942C81.2907 83.1972 80.6468 82.8563 80.0711 82.3715C79.4954 81.8867 79.0333 81.2541 78.6772 80.4739C78.325 79.6936 78.147 78.7429 78.147 77.6255ZM80.3135 77.6255C80.3135 78.3149 80.3741 78.9815 80.4991 79.6216C80.6241 80.2617 80.8324 80.8337 81.1279 81.3337C81.4233 81.8336 81.8172 82.2351 82.3096 82.5306C82.802 82.826 83.4118 82.9737 84.1353 82.9737C84.8587 82.9737 85.4647 82.826 85.9609 82.5306C86.4533 82.2351 86.8472 81.8374 87.1427 81.3337C87.4381 80.8337 87.6464 80.2617 87.7714 79.6216C87.8964 78.9815 87.957 78.3149 87.957 77.6255C87.957 76.9361 87.8964 76.2695 87.7714 75.6294C87.6464 74.9892 87.4381 74.4173 87.1427 73.9173C86.8472 73.4173 86.4533 73.0158 85.9609 72.7204C85.4685 72.425 84.8587 72.2772 84.1353 72.2772C83.4118 72.2772 82.8058 72.425 82.3096 72.7204C81.8172 73.0158 81.4233 73.4135 81.1279 73.9173C80.8324 74.4173 80.6241 74.9892 80.4991 75.6294C80.3741 76.2695 80.3135 76.9361 80.3135 77.6255Z" fill="white"/>
<path d="M109.661 73.4854C109.422 73.4021 109.18 73.3604 108.933 73.3604C108.539 73.3604 108.187 73.4513 107.873 73.6331C107.562 73.8149 107.297 74.0573 107.085 74.3603C106.873 74.6634 106.706 75.027 106.593 75.4436C106.479 75.8641 106.418 76.311 106.418 76.7883V79.5003C106.418 80.6025 106.422 81.4434 106.43 82.0267C106.437 82.61 106.468 83.0835 106.517 83.4433C106.187 83.4092 105.858 83.3941 105.532 83.3941C105.168 83.3941 104.824 83.4092 104.498 83.4433C104.547 82.8865 104.578 82.1252 104.585 81.1631C104.593 80.201 104.597 79.023 104.597 77.6254V76.8375C104.597 76.1974 104.593 75.4588 104.585 74.6179C104.578 73.7808 104.547 72.8187 104.498 71.7355C104.68 71.7695 104.85 71.7961 105.017 71.8226C105.18 71.8491 105.354 71.8605 105.536 71.8605C105.684 71.8605 105.839 71.8491 106.006 71.8226C106.168 71.7961 106.343 71.7695 106.524 71.7355C106.46 72.3263 106.422 72.796 106.415 73.1407C106.407 73.4854 106.403 73.8149 106.403 74.1255L106.452 74.152C107.422 72.3756 108.505 71.4893 109.706 71.4893C109.854 71.4893 109.983 71.4968 110.089 71.5158C110.195 71.5309 110.331 71.5726 110.494 71.6408C110.411 71.8377 110.361 72.137 110.346 72.5422C110.331 72.9437 110.32 73.3111 110.32 73.6407L110.145 73.7657C110.062 73.6672 109.903 73.5763 109.664 73.493L109.661 73.4854Z" fill="white"/>
<path d="M114.084 77.9702C114.084 75.9475 114.566 74.3643 115.528 73.2128C116.49 72.0613 117.891 71.4856 119.732 71.4856C120.603 71.4856 121.353 71.622 121.986 71.8909C122.618 72.1636 123.148 72.5234 123.576 72.9742C124.004 73.4249 124.319 73.9552 124.527 74.565C124.732 75.1748 124.834 75.8225 124.834 76.5119C124.834 76.6748 124.83 76.8376 124.823 76.9929C124.815 77.1482 124.8 77.3111 124.785 77.474C123.898 77.4588 123.02 77.4399 122.148 77.4247C121.277 77.4096 120.399 77.3982 119.512 77.3982C118.971 77.3982 118.433 77.4058 117.899 77.4247C117.365 77.4399 116.827 77.4588 116.285 77.474C116.27 77.5573 116.259 77.6785 116.259 77.8452V78.1671C116.259 78.8073 116.353 79.4095 116.543 79.9663C116.732 80.5269 117.009 81.0041 117.368 81.4094C117.728 81.8109 118.175 82.1329 118.698 82.3715C119.224 82.6101 119.83 82.7275 120.524 82.7275C120.853 82.7275 121.19 82.6821 121.535 82.5912C121.879 82.5003 122.217 82.3791 122.546 82.22C122.876 82.0647 123.182 81.8791 123.47 81.667C123.758 81.4549 124.008 81.2238 124.224 80.9776L124.349 81.0534L124.201 82.2617C123.709 82.6556 123.095 82.9927 122.364 83.273C121.633 83.5533 120.872 83.6934 120.084 83.6934C119.198 83.6934 118.387 83.5571 117.656 83.2881C116.925 83.0154 116.293 82.6215 115.759 82.1064C115.225 81.5874 114.812 80.9776 114.528 80.2693C114.24 79.5648 114.096 78.7997 114.096 77.9777L114.084 77.9702ZM119.777 72.2772C119.168 72.2772 118.656 72.4174 118.236 72.6977C117.815 72.978 117.471 73.3264 117.202 73.7469C116.929 74.1673 116.724 74.6256 116.584 75.1256C116.444 75.6256 116.357 76.099 116.327 76.5422C116.834 76.5574 117.365 76.5763 117.918 76.5914C118.467 76.6066 119.005 76.618 119.531 76.618C120.058 76.618 120.622 76.6104 121.183 76.5914C121.739 76.5763 122.285 76.5574 122.811 76.5422C122.811 76.099 122.773 75.6294 122.701 75.137C122.626 74.6446 122.478 74.1825 122.258 73.7582C122.035 73.3302 121.728 72.978 121.334 72.6977C120.94 72.4174 120.421 72.2772 119.781 72.2772H119.777Z" fill="white"/>
<path d="M129.539 78.9056C129.539 78.3488 129.535 77.739 129.527 77.0799C129.52 76.4247 129.504 75.7694 129.489 75.1217C129.474 74.474 129.451 73.8528 129.429 73.2619C129.402 72.671 129.376 72.1597 129.342 71.7355C129.8 71.8188 130.171 71.8605 130.451 71.8605C130.732 71.8605 131.099 71.8188 131.561 71.7355C131.497 72.1635 131.448 72.5726 131.413 72.9665C131.379 73.3604 131.364 73.7543 131.364 74.1482H131.413C131.527 73.8869 131.694 73.6028 131.906 73.296C132.118 72.993 132.394 72.7051 132.732 72.4324C133.069 72.1597 133.474 71.9362 133.951 71.7544C134.428 71.5726 134.97 71.4817 135.576 71.4817C136.182 71.4817 136.818 71.6029 137.424 71.8377C138.03 72.0764 138.572 72.44 139.038 72.9362C139.508 73.4286 139.883 74.0573 140.171 74.8225C140.458 75.5876 140.602 76.4928 140.602 77.5458C140.602 78.5988 140.447 79.5079 140.133 80.2806C139.822 81.0533 139.413 81.6934 138.913 82.2047C138.413 82.7161 137.841 83.0873 137.201 83.3259C136.561 83.5645 135.921 83.6819 135.277 83.6819C133.47 83.6819 132.179 82.9017 131.406 81.3411H131.357V82.8941C131.357 83.4206 131.36 84.0077 131.368 84.6554C131.376 85.3031 131.387 85.9508 131.406 86.5909C131.421 87.231 131.444 87.8446 131.466 88.4279C131.493 89.0113 131.519 89.5074 131.554 89.9203C131.095 89.837 130.724 89.7953 130.444 89.7953C130.163 89.7953 129.796 89.837 129.334 89.9203C129.368 89.5074 129.395 89.0113 129.421 88.4279C129.448 87.8446 129.467 87.231 129.482 86.5909C129.497 85.9508 129.512 85.3031 129.52 84.6554C129.527 84.0077 129.531 83.4206 129.531 82.8941V78.9018L129.539 78.9056ZM138.44 77.5269C138.44 76.5421 138.337 75.7277 138.133 75.0876C137.928 74.4475 137.663 73.9323 137.345 73.546C137.023 73.1596 136.659 72.8945 136.246 72.743C135.834 72.5953 135.432 72.5195 135.038 72.5195C134.379 72.5195 133.819 72.6597 133.349 72.94C132.879 73.2203 132.497 73.5914 132.201 74.0611C131.906 74.5308 131.69 75.08 131.561 75.7126C131.429 76.3451 131.364 77.0155 131.364 77.7201C131.364 81.1366 132.565 82.8486 134.962 82.8486C135.553 82.8486 136.068 82.7123 136.504 82.4434C136.94 82.1706 137.299 81.7956 137.587 81.3108C137.875 80.826 138.087 80.2578 138.227 79.6101C138.368 78.9624 138.436 78.2655 138.436 77.5269H138.44Z" fill="white"/>
<path d="M145.905 79.72C145.905 78.8488 145.916 78.1064 145.943 77.489C145.969 76.8716 145.981 76.2618 145.981 75.652C145.981 75.0762 145.977 74.4513 145.969 73.7771C145.962 73.1028 145.95 72.4211 145.931 71.7317C146.34 71.815 146.689 71.8567 146.965 71.8567C147.227 71.8567 147.564 71.815 147.977 71.7317C147.893 72.7165 147.833 73.7998 147.791 74.974C147.749 76.1482 147.73 77.3527 147.73 78.5837C147.73 79.4397 147.806 80.0912 147.954 80.5419C148.102 80.9927 148.283 81.3336 148.496 81.5646C148.727 81.826 149.018 82.0456 149.371 82.2161C149.723 82.3903 150.139 82.4737 150.617 82.4737C151.306 82.4737 151.882 82.3221 152.344 82.0191C152.802 81.7161 153.139 81.3411 153.355 80.898C153.469 80.6177 153.56 80.3791 153.628 80.1821C153.692 79.9851 153.745 79.7238 153.787 79.3942C153.829 79.0647 153.851 78.6216 153.863 78.0648C153.87 77.508 153.874 76.7428 153.874 75.7732V73.7013C153.874 73.3415 153.87 72.9968 153.863 72.6673C153.855 72.3377 153.84 72.0271 153.825 71.7317C154.007 71.7658 154.177 71.7923 154.344 71.8188C154.507 71.8453 154.681 71.8567 154.863 71.8567C155.044 71.8567 155.215 71.8453 155.382 71.8188C155.544 71.7923 155.711 71.7658 155.874 71.7317C155.791 73.0119 155.741 74.2505 155.726 75.4399C155.711 76.633 155.7 77.8943 155.7 79.2238C155.7 79.9624 155.707 80.6859 155.726 81.3942C155.741 82.1025 155.768 82.7842 155.802 83.4395C155.472 83.4054 155.154 83.3903 154.84 83.3903C154.526 83.3903 154.207 83.4054 153.878 83.4395C153.893 83.2918 153.908 83.1365 153.916 82.9699C153.923 82.807 153.927 82.6327 153.927 82.4509V81.3904H153.878C153.45 82.1782 152.901 82.7577 152.226 83.1289C151.552 83.5001 150.821 83.6819 150.033 83.6819C148.753 83.6819 147.746 83.341 147.015 82.6593C146.284 81.9775 145.916 80.9964 145.916 79.7124L145.905 79.72Z" fill="white"/>
<path d="M172.797 77.2808C172.797 78.2353 172.653 79.1065 172.365 79.8943C172.078 80.6821 171.684 81.3602 171.184 81.9283C170.684 82.4965 170.089 82.9321 169.407 83.2351C168.726 83.5381 167.991 83.6896 167.203 83.6896C166.415 83.6896 165.703 83.5191 165.07 83.1858C164.438 82.8487 163.957 82.4434 163.627 81.9662C163.036 82.4434 162.483 82.9207 161.976 83.3942H161.533C161.567 83.0002 161.593 82.523 161.62 81.9662C161.646 81.4094 161.665 80.8109 161.68 80.1784C161.696 79.5458 161.711 78.9019 161.718 78.2429C161.726 77.5876 161.73 76.9778 161.73 76.4172V71.9552C161.73 71.3985 161.726 70.7886 161.718 70.1296C161.711 69.4743 161.696 68.8228 161.68 68.1827C161.665 67.5425 161.643 66.9289 161.62 66.3456C161.593 65.7623 161.567 65.2661 161.533 64.8533C161.991 64.9366 162.362 64.9783 162.642 64.9783C162.824 64.9783 163.014 64.9669 163.211 64.9404C163.408 64.9139 163.62 64.8874 163.851 64.8533C163.802 65.1828 163.76 65.7055 163.726 66.4176C163.692 67.1335 163.669 67.9289 163.65 68.8077C163.635 69.6864 163.616 70.5917 163.601 71.5197C163.586 72.4477 163.567 73.2923 163.552 74.0461H163.601C164.158 73.1597 164.775 72.5083 165.449 72.0992C166.123 71.6901 166.904 71.4818 167.79 71.4818C168.676 71.4818 169.385 71.6409 170.01 71.9628C170.634 72.2848 171.15 72.7052 171.562 73.2317C171.972 73.7582 172.282 74.368 172.487 75.0688C172.691 75.7657 172.793 76.5043 172.793 77.2732L172.797 77.2808ZM170.631 77.205C170.631 76.4475 170.536 75.7808 170.347 75.1975C170.157 74.6142 169.911 74.1256 169.608 73.7317C169.305 73.3378 168.949 73.0385 168.547 72.8302C168.146 72.6257 167.729 72.5234 167.301 72.5234C166.79 72.5234 166.301 72.6181 165.836 72.8075C165.366 72.9969 164.961 73.3075 164.616 73.743C164.271 74.1786 163.995 74.7468 163.79 75.4437C163.586 76.1407 163.483 77.0005 163.483 78.0194C163.483 81.3223 164.684 82.9737 167.082 82.9737C167.589 82.9737 168.059 82.8374 168.487 82.5684C168.915 82.2957 169.29 81.9056 169.608 81.398C169.93 80.8905 170.18 80.2807 170.362 79.5723C170.544 78.8678 170.634 78.0762 170.634 77.205H170.631Z" fill="white"/>
<path d="M178.725 70.1332C178.718 69.478 178.702 68.8265 178.687 68.1863C178.672 67.5462 178.649 66.9326 178.627 66.3493C178.6 65.766 178.574 65.2698 178.54 64.8569C178.998 64.9403 179.369 64.9819 179.649 64.9819C179.93 64.9819 180.297 64.9403 180.759 64.8569C180.725 65.2698 180.699 65.766 180.672 66.3493C180.645 66.9326 180.627 67.5462 180.611 68.1863C180.596 68.8265 180.581 69.478 180.574 70.1332C180.566 70.7923 180.562 71.3983 180.562 71.9589V76.4208C180.562 76.9814 180.566 77.5875 180.574 78.2465C180.581 78.9056 180.592 79.5533 180.611 80.1934C180.627 80.8335 180.649 81.4434 180.672 82.0191C180.699 82.5948 180.725 83.0721 180.759 83.4471C180.38 83.413 180.013 83.3978 179.649 83.3978C179.286 83.3978 178.918 83.413 178.54 83.4471C178.574 83.0683 178.6 82.591 178.627 82.0191C178.653 81.4434 178.672 80.8373 178.687 80.1934C178.702 79.5533 178.718 78.9018 178.725 78.2465C178.733 77.5912 178.737 76.9814 178.737 76.4208V71.9589C178.737 71.4021 178.733 70.7923 178.725 70.1332Z" fill="white"/>
<path d="M187.637 67.444C187.637 67.0994 187.762 66.8039 188.008 66.5577C188.255 66.3115 188.55 66.1865 188.895 66.1865C189.239 66.1865 189.535 66.3115 189.781 66.5577C190.027 66.8039 190.152 67.0994 190.152 67.444C190.152 67.7887 190.027 68.0842 189.781 68.3304C189.535 68.5766 189.239 68.7016 188.895 68.7016C188.55 68.7016 188.255 68.5766 188.008 68.3304C187.762 68.0842 187.637 67.7887 187.637 67.444ZM187.982 76.3452C187.982 75.6066 187.971 74.8301 187.944 74.0157C187.917 73.2014 187.864 72.4438 187.785 71.7355C188.243 71.8189 188.614 71.8605 188.895 71.8605C189.175 71.8605 189.542 71.8189 190.005 71.7355C189.921 72.4438 189.868 73.2014 189.845 74.0157C189.823 74.8301 189.808 75.6066 189.808 76.3452V78.9095C189.808 79.6481 189.819 80.4246 189.845 81.2389C189.872 82.0533 189.925 82.7881 190.005 83.4434C189.626 83.4093 189.258 83.3941 188.895 83.3941C188.531 83.3941 188.164 83.4093 187.785 83.4434C187.868 82.7881 187.921 82.0495 187.944 81.2389C187.967 80.4283 187.982 79.6481 187.982 78.9095V76.3452Z" fill="white"/>
<path d="M195.747 77.6254C195.747 76.5572 195.928 75.6368 196.288 74.8641C196.648 74.0914 197.121 73.4551 197.705 72.9551C198.288 72.4551 198.959 72.0839 199.712 71.8453C200.47 71.6067 201.243 71.4893 202.03 71.4893C202.936 71.4893 203.742 71.5991 204.458 71.8226C205.174 72.046 205.685 72.296 206 72.5763C205.886 72.8225 205.78 73.0801 205.693 73.3528C205.602 73.6255 205.523 73.9058 205.458 74.2051H205.261C205.148 73.9929 204.988 73.7733 204.792 73.5536C204.595 73.3301 204.36 73.1255 204.091 72.9362C203.818 72.7468 203.519 72.5915 203.189 72.4665C202.86 72.3415 202.5 72.2809 202.106 72.2809C201.367 72.2809 200.731 72.4172 200.197 72.6862C199.663 72.9589 199.227 73.3301 198.89 73.8073C198.553 74.2846 198.307 74.8452 198.152 75.4967C197.996 76.1444 197.917 76.8489 197.917 77.6026C197.917 79.2957 198.277 80.5722 199 81.4358C199.724 82.2994 200.784 82.7312 202.178 82.7312C202.508 82.7312 202.845 82.6858 203.189 82.5948C203.534 82.5039 203.871 82.3827 204.201 82.2237C204.53 82.0684 204.837 81.8828 205.125 81.6706C205.413 81.4585 205.663 81.2275 205.879 80.9813L206.004 81.057C205.92 81.451 205.871 81.8525 205.856 82.2653C205.363 82.6592 204.75 82.9963 204.019 83.2766C203.288 83.5569 202.527 83.6971 201.739 83.6971C201.03 83.6971 200.322 83.5948 199.606 83.3903C198.89 83.1857 198.246 82.841 197.671 82.3562C197.095 81.8714 196.633 81.2426 196.277 80.4699C195.925 79.6972 195.747 78.7541 195.747 77.6367V77.6254Z" fill="white"/>
<path d="M76.9012 58.577C90.4879 58.577 101.502 47.5626 101.502 33.9757C101.502 20.3889 90.4879 9.37451 76.9012 9.37451C63.3145 9.37451 52.3003 20.3889 52.3003 33.9757C52.3003 47.5626 63.3145 58.577 76.9012 58.577Z" fill="white"/>
<path d="M181.365 58.577C194.952 58.577 205.966 47.5626 205.966 33.9757C205.966 20.3889 194.952 9.37451 181.365 9.37451C167.778 9.37451 156.764 20.3889 156.764 33.9757C156.764 47.5626 167.778 58.577 181.365 58.577Z" fill="white"/>
<path d="M129.133 9.37464C115.547 9.37464 104.532 20.3893 104.532 33.9759C104.532 45.1724 112.009 54.6189 122.243 57.5961C122.99 57.4332 123.622 57.1075 124.137 56.6075C124.895 55.8689 125.493 54.9144 125.929 53.744C126.361 52.5736 126.645 51.2592 126.773 49.8048C126.902 48.3503 126.97 46.9071 126.97 45.4754V26.336C126.97 25.0331 126.959 23.7112 126.936 22.3665C126.914 21.0219 126.891 19.6962 126.872 18.397C126.849 17.094 126.808 15.8592 126.743 14.685C126.679 13.5146 126.58 12.473 126.451 11.5602C127.667 11.7761 128.641 11.8859 129.379 11.8859C130.118 11.8859 131.095 11.7798 132.307 11.5602C132.091 13.4275 131.947 15.435 131.883 17.5826C131.819 19.7303 131.785 21.7832 131.785 23.7339V30.5025C131.785 33.0214 131.826 35.5137 131.913 37.9871C132 40.4605 132.042 42.8922 132.042 45.2784C132.042 47.1003 131.944 48.7821 131.75 50.3237C131.553 51.8653 130.959 53.3728 129.959 54.8462C129.004 56.2363 127.713 57.384 126.084 58.2968C126.039 58.3233 125.993 58.3423 125.948 58.3688C126.989 58.5014 128.05 58.5733 129.129 58.5733C142.716 58.5733 153.73 47.5586 153.73 33.9721C153.73 20.3855 142.716 9.37085 129.129 9.37085L129.133 9.37464Z" fill="white"/>
<path d="M126.058 3.32183C126.058 2.40899 126.383 1.62872 127.035 0.977232C127.686 0.325744 128.467 0 129.379 0C130.292 0 131.072 0.325744 131.724 0.977232C132.375 1.62872 132.701 2.40899 132.701 3.32183C132.701 4.23467 132.375 5.01494 131.724 5.66643C131.072 6.31792 130.292 6.64366 129.379 6.64366C128.467 6.64366 127.686 6.31792 127.035 5.66643C126.383 5.01494 126.058 4.23467 126.058 3.32183Z" fill="#E6B23A"/>
<path d="M7.34814 20.4498H7.47693C9.77604 16.5447 13.0107 14.5902 17.1771 14.5902C18.2604 14.5902 19.3248 14.7531 20.3664 15.0788C21.408 15.4046 22.3511 15.8515 23.1995 16.4121C24.0442 16.9765 24.7714 17.662 25.3812 18.4613C25.9873 19.2642 26.4001 20.1203 26.6198 21.0331H26.7486C27.7902 18.9499 29.2106 17.3552 31.0135 16.2492C32.8126 15.1432 34.8883 14.5902 37.2291 14.5902C38.248 14.5902 39.2138 14.6925 40.1229 14.8894C35.8882 11.4426 30.487 9.37451 24.601 9.37451C17.9423 9.37451 11.9047 12.0221 7.47314 16.3174C7.38981 17.6961 7.34814 19.0749 7.34814 20.4498Z" fill="white"/>
<path d="M47.1792 24.192C47.1868 24.4155 47.1905 24.6465 47.1905 24.8776C47.1905 25.6162 47.1678 26.4192 47.1262 27.2866C47.0807 28.154 47.039 29.1653 46.9974 30.313C46.9519 31.4644 46.9103 32.7636 46.8686 34.2181C46.8231 35.6726 46.8042 37.3543 46.8042 39.2634C46.8042 40.4338 46.8156 41.5625 46.8383 42.6496C46.8497 43.2064 46.8686 43.7897 46.8989 44.3919C48.3799 41.2292 49.2094 37.699 49.2094 33.9719C49.2094 30.4948 48.4859 27.1881 47.1868 24.1882L47.1792 24.192Z" fill="white"/>
<path d="M2.43547 40.339C2.49986 38.1914 2.53395 36.1384 2.53395 34.1878V27.4191C2.53395 26.0593 2.5188 24.6503 2.48471 23.1958C0.89389 26.4532 0 30.1122 0 33.9794C0 37.627 0.795411 41.0852 2.21579 44.1987C2.31805 42.998 2.39002 41.714 2.43168 40.3428L2.43547 40.339Z" fill="white"/>
<path d="M45.562 46.0357H42.7629C42.2857 46.0357 41.8084 46.0774 41.3312 46.1645C41.4599 45.0812 41.6001 42.8881 41.7554 39.589C41.9069 36.2899 41.9826 31.6917 41.9826 25.7866C41.9826 24.7033 41.8614 23.6806 41.6228 22.7261C41.3842 21.7716 41.0054 20.9459 40.4827 20.2527C39.96 19.5596 39.2669 19.0066 38.3995 18.5937C37.5321 18.1809 36.4451 17.9763 35.1459 17.9763C33.5854 17.9763 32.2597 18.2793 31.1764 18.8892C30.0894 19.499 29.2447 20.2149 28.6387 21.0368C28.2902 21.514 28.0213 21.9913 27.8243 22.4686C27.6274 22.9458 27.4759 23.673 27.3698 24.6503C27.26 25.6275 27.1842 26.9949 27.1426 28.7524C27.0971 30.5099 27.0782 32.9302 27.0782 36.0097C27.0782 37.877 27.1123 39.5815 27.1766 41.1193C27.241 42.6609 27.3168 44.3426 27.4039 46.1645C26.404 46.0774 25.4495 46.0357 24.5404 46.0357C23.6314 46.0357 22.6731 46.0774 21.6769 46.1645C21.8928 43.7783 22.0444 41.3465 22.1315 38.8732C22.2186 36.3998 22.2603 33.9681 22.2603 31.5818C22.2603 29.544 22.2489 27.9456 22.2262 26.7979C22.2034 25.6502 22.1504 24.7374 22.0633 24.0632C21.9762 23.389 21.855 22.836 21.7035 22.4042C21.552 21.9724 21.3436 21.4913 21.0861 20.9724C20.6088 20.1467 19.8589 19.4422 18.84 18.8551C17.8211 18.268 16.7681 17.9763 15.6811 17.9763C12.8176 17.9763 10.7116 18.9081 9.36702 20.7754C8.0224 22.6428 7.3482 25.2677 7.3482 28.6539V34.1878C7.3482 36.1422 7.38228 38.1914 7.44668 40.339C7.51107 42.4867 7.65121 44.4298 7.87089 46.1645C6.87095 46.0774 5.89752 46.0357 4.94303 46.0357C4.36351 46.0357 3.78021 46.0547 3.18555 46.085C7.41259 53.543 15.4197 58.5769 24.6048 58.5769C33.7899 58.5769 41.8198 53.5279 46.043 46.0509C45.8839 46.0395 45.7249 46.0357 45.5696 46.0357H45.562Z" fill="white"/>
</g>
<defs>
<clipPath id="clip0_2002_406">
<rect width="206" height="90" fill="white"/>
</clipPath>
</defs>
</svg>
