<svg width="125" height="164" viewBox="0 0 125 164" fill="none" xmlns="http://www.w3.org/2000/svg">
<g clip-path="url(#clip0_9_199)">
<path d="M123.691 79.2247C145.611 79.2247 163.382 61.4896 163.382 39.6124C163.382 17.7351 145.611 0 123.691 0C101.77 0 84 17.7351 84 39.6124C84 61.4896 101.77 79.2247 123.691 79.2247Z" fill="#B2B2B2"/>
<path d="M39.6908 164.005C61.6114 164.005 79.3815 146.27 79.3815 124.393C79.3815 102.515 61.6114 84.7802 39.6908 84.7802C17.7702 84.7802 0 102.515 0 124.393C0 146.27 17.7702 164.005 39.6908 164.005Z" fill="#B2B2B2"/>
<path d="M39.6908 79.2247C61.6114 79.2247 79.3815 61.4896 79.3815 39.6124C79.3815 17.7351 61.6114 0 39.6908 0C17.7702 0 0 17.7351 0 39.6124C0 61.4896 17.7702 79.2247 39.6908 79.2247Z" fill="#756A66"/>
<path d="M123.309 164.005C145.23 164.005 163 146.27 163 124.393C163 102.515 145.23 84.7802 123.309 84.7802C101.389 84.7802 83.6184 102.515 83.6184 124.393C83.6184 146.27 101.389 164.005 123.309 164.005Z" fill="#B2B2B2"/>
</g>
<defs>
<clipPath id="clip0_9_199">
<rect width="163" height="164" fill="white"/>
</clipPath>
</defs>
</svg>
