<svg width="90" height="39" viewBox="0 0 90 39" fill="none" xmlns="http://www.w3.org/2000/svg">
<g clip-path="url(#clip0_2002_282)">
<path d="M1.34415 28.0059C1.23429 28.0059 1.1212 28.0059 1.00165 28.0059C0.8821 28.0059 0.762548 28.0121 0.642996 28.0184C0.523444 28.0247 0.407123 28.0309 0.297264 28.0403C0.187406 28.0497 0.0872406 28.0592 0 28.0717C0.0193868 27.9996 0.0323113 27.9338 0.0323113 27.8774C0.0323113 27.8335 0.0226179 27.7708 0 27.6893C0.277878 27.6987 0.546062 27.705 0.811015 27.7113C1.07597 27.7175 1.34415 27.7207 1.62203 27.7207C1.89991 27.7207 2.16809 27.7207 2.43304 27.7113C2.698 27.705 2.96618 27.6987 3.24406 27.6893C3.22144 27.7708 3.21175 27.8366 3.21175 27.8836C3.21175 27.9369 3.22144 27.9996 3.24406 28.0717C3.15682 28.0592 3.05665 28.0497 2.94679 28.0403C2.83694 28.0309 2.72061 28.0247 2.60106 28.0184C2.48151 28.0121 2.36196 28.009 2.24241 28.0059C2.12285 28.0059 2.00977 28.0059 1.89991 28.0059C1.88698 28.4227 1.88052 28.8427 1.88052 29.2658V30.3125C1.88052 30.5789 1.88698 30.8453 1.89668 31.1055C1.90637 31.3656 1.91929 31.6226 1.93222 31.8733C1.83528 31.8639 1.73189 31.8608 1.62526 31.8608C1.51863 31.8608 1.41524 31.8639 1.3183 31.8733C1.33123 31.6226 1.34092 31.3656 1.35385 31.1055C1.36354 30.8453 1.37 30.5821 1.37 30.3125V29.2658C1.37 28.8427 1.36354 28.4227 1.35061 28.0059H1.34415Z" fill="#756A66"/>
<path d="M3.91956 28.5857C3.91956 28.4227 3.9131 28.2629 3.90987 28.1031C3.90664 27.9432 3.90017 27.7928 3.89371 27.6486C3.88725 27.5045 3.88079 27.3822 3.87109 27.2788C3.98741 27.2976 4.08112 27.3101 4.1522 27.3101C4.22329 27.3101 4.31699 27.3007 4.43331 27.2788C4.42362 27.3791 4.41716 27.5013 4.41069 27.6455C4.40423 27.7865 4.39777 27.937 4.39454 28.0937C4.39131 28.2504 4.38808 28.4071 4.38484 28.5669C4.38484 28.7267 4.38484 28.8709 4.38484 29.0057V29.4695H4.39777C4.51409 29.294 4.65626 29.1592 4.81782 29.0652C4.9826 28.9712 5.17647 28.9211 5.40265 28.9211C5.51897 28.9211 5.63852 28.9367 5.75808 28.9712C5.87763 29.0025 5.98426 29.059 6.08119 29.1373C6.17812 29.2157 6.25567 29.3253 6.31706 29.4601C6.37845 29.5949 6.40753 29.7704 6.40753 29.9804C6.40753 30.1559 6.4043 30.3345 6.39461 30.5194C6.38492 30.7043 6.38168 30.8986 6.38168 31.1086V31.5035C6.38168 31.5693 6.38168 31.632 6.38168 31.6947C6.38168 31.7574 6.38815 31.8169 6.39138 31.8733C6.30737 31.8639 6.22013 31.8608 6.12642 31.8608C6.03272 31.8608 5.95194 31.8639 5.86793 31.8733C5.87763 31.6634 5.88409 31.444 5.89701 31.2215C5.90671 30.9989 5.91317 30.7702 5.91317 30.532V30.159C5.91317 29.855 5.85178 29.6231 5.73223 29.4664C5.60944 29.3097 5.44466 29.2313 5.2314 29.2313C4.93737 29.2313 4.72411 29.3191 4.58841 29.4946C4.4527 29.6701 4.38484 29.9146 4.38484 30.2311C4.38484 30.3439 4.38484 30.4756 4.38484 30.626C4.38484 30.7764 4.39131 30.9269 4.39454 31.0804C4.39777 31.234 4.40423 31.3813 4.41069 31.5223C4.41716 31.6634 4.42362 31.7793 4.43331 31.8702C4.33638 31.8608 4.24267 31.8577 4.1522 31.8577C4.06173 31.8577 3.9648 31.8608 3.87109 31.8702C3.88079 31.7762 3.88725 31.6602 3.89371 31.5161C3.90017 31.375 3.90664 31.2246 3.90987 31.0648C3.9131 30.9049 3.91633 30.7451 3.91956 30.5821C3.91956 30.4191 3.91956 30.2687 3.91956 30.1308V29.0276C3.91956 28.8897 3.91956 28.7393 3.91956 28.5763V28.5857Z" fill="#756A66"/>
<path d="M7.42188 30.5195C7.42188 30.0212 7.54466 29.6294 7.79022 29.3442C8.03579 29.059 8.39122 28.918 8.85973 28.918C9.08268 28.918 9.27332 28.9524 9.43487 29.0183C9.59643 29.0841 9.73214 29.175 9.83876 29.2847C9.94862 29.3975 10.0294 29.526 10.0811 29.6764C10.1328 29.8268 10.1586 29.9867 10.1586 30.1591C10.1586 30.1998 10.1586 30.2405 10.1586 30.2782C10.1586 30.3158 10.1522 30.3565 10.149 30.3972C9.92277 30.3941 9.69982 30.3878 9.47688 30.3847C9.25393 30.3816 9.03098 30.3784 8.8048 30.3784C8.66586 30.3784 8.53015 30.3784 8.39445 30.3847C8.25874 30.3878 8.1198 30.3941 7.98409 30.3972C7.98086 30.4161 7.97763 30.4474 7.97763 30.4881V30.5665C7.97763 30.7263 8.00025 30.8736 8.04872 31.0115C8.09718 31.1494 8.16827 31.2685 8.25874 31.3688C8.34921 31.4691 8.4623 31.5474 8.59801 31.607C8.73048 31.6665 8.88558 31.6947 9.06329 31.6947C9.1473 31.6947 9.23131 31.6822 9.32178 31.6603C9.40902 31.6383 9.49626 31.607 9.58027 31.5694C9.66428 31.5318 9.74183 31.4848 9.81615 31.4315C9.89046 31.3782 9.95185 31.3218 10.0068 31.2622L10.0391 31.2811L10.0003 31.5788C9.87431 31.6759 9.71921 31.7606 9.53181 31.8295C9.3444 31.8985 9.15053 31.9329 8.9502 31.9329C8.72402 31.9329 8.51723 31.8985 8.33306 31.8326C8.14565 31.7668 7.98409 31.6697 7.84839 31.5412C7.71268 31.4127 7.60605 31.2622 7.53496 31.0867C7.46065 30.9112 7.42511 30.7232 7.42511 30.5195H7.42188ZM8.87265 29.1154C8.71756 29.1154 8.58831 29.1499 8.48169 29.2188C8.37506 29.2878 8.28782 29.3755 8.21673 29.479C8.14565 29.5824 8.09395 29.6952 8.05841 29.8206C8.02287 29.9459 8.00025 30.0619 7.99379 30.1716C8.12303 30.1747 8.25874 30.181 8.39768 30.1841C8.53662 30.1873 8.67556 30.1904 8.80803 30.1904C8.94051 30.1904 9.08591 30.1904 9.22808 30.1841C9.37025 30.181 9.50919 30.1747 9.64166 30.1716C9.64166 30.0619 9.63197 29.9459 9.61258 29.8237C9.5932 29.7015 9.55442 29.5887 9.49949 29.4821C9.44133 29.3755 9.36379 29.2878 9.26362 29.2188C9.16346 29.1499 9.03098 29.1154 8.86942 29.1154H8.87265Z" fill="#756A66"/>
<path d="M13.5027 31.3656C13.493 31.0208 13.4672 30.698 13.4316 30.4003C13.632 30.4348 13.7935 30.4536 13.9163 30.4536C13.9745 30.4536 14.0359 30.4473 14.1037 30.4379C14.1716 30.4285 14.2523 30.416 14.3461 30.4003C14.3234 30.6792 14.3137 30.9582 14.3137 31.2371H14.3364C14.7176 30.6103 15.2508 30.2969 15.9422 30.2969C16.1232 30.2969 16.2977 30.3219 16.4689 30.3752C16.6402 30.4285 16.7985 30.4975 16.9374 30.5883C17.0764 30.6792 17.1991 30.7889 17.2993 30.9174C17.3995 31.0459 17.4673 31.1838 17.5029 31.3311H17.5255C17.6967 30.9958 17.9326 30.7419 18.2299 30.5633C18.5271 30.3846 18.8696 30.2969 19.2574 30.2969C19.4932 30.2969 19.713 30.3282 19.9133 30.3909C20.1136 30.4536 20.2881 30.5507 20.4367 30.6824C20.5854 30.814 20.6985 30.9864 20.7825 31.1932C20.8632 31.4032 20.9053 31.6539 20.9053 31.9454C20.9053 32.0645 20.902 32.193 20.8956 32.3309C20.8891 32.4688 20.8826 32.6318 20.8729 32.8167C20.8665 33.0016 20.86 33.2116 20.8503 33.4435C20.8439 33.6754 20.8406 33.9481 20.8406 34.2521C20.8406 34.4401 20.8406 34.6219 20.8471 34.7943C20.8503 34.9698 20.86 35.1578 20.8729 35.3584C20.7954 35.3458 20.7146 35.3364 20.6371 35.3364H20.175C20.0975 35.3364 20.0167 35.3427 19.9391 35.3584C19.9618 35.1829 19.9844 34.8319 20.0102 34.3022C20.0361 33.7725 20.049 33.036 20.049 32.0864C20.049 31.9109 20.0296 31.7479 19.9908 31.5944C19.9521 31.4408 19.8874 31.3092 19.8034 31.1964C19.7162 31.0835 19.6031 30.9958 19.4577 30.93C19.3155 30.8641 19.1346 30.8297 18.9181 30.8297C18.6596 30.8297 18.4399 30.8798 18.2622 30.977C18.0812 31.0741 17.9423 31.1901 17.8421 31.3217C17.784 31.3969 17.7387 31.4753 17.7064 31.5505C17.6741 31.6257 17.6483 31.7448 17.6321 31.9015C17.6127 32.0582 17.603 32.2776 17.5933 32.5597C17.5869 32.8417 17.5836 33.2304 17.5836 33.7255C17.5836 34.0264 17.5901 34.2991 17.5998 34.5467C17.6095 34.7943 17.6224 35.0638 17.6386 35.3552C17.4738 35.3427 17.3155 35.3333 17.1636 35.3333C17.0117 35.3333 16.8534 35.3396 16.6886 35.3552C16.7242 34.9729 16.75 34.5811 16.7629 34.1862C16.7759 33.7882 16.7856 33.3996 16.7856 33.0172C16.7856 32.6913 16.7856 32.4343 16.7791 32.2494C16.7759 32.0645 16.7662 31.9172 16.7532 31.8106C16.7403 31.7041 16.7177 31.6132 16.6951 31.5442C16.6692 31.4753 16.6369 31.3969 16.5917 31.3154C16.5141 31.1838 16.3881 31.071 16.2201 30.977C16.0521 30.8829 15.8776 30.8359 15.6967 30.8359C15.2217 30.8359 14.876 30.9864 14.653 31.2841C14.4301 31.585 14.3202 32.0049 14.3202 32.5471V33.4341C14.3202 33.7475 14.3267 34.0766 14.3364 34.4213C14.3461 34.766 14.3719 35.0763 14.4074 35.3552C14.2427 35.3427 14.0811 35.3333 13.9228 35.3333C13.7644 35.3333 13.6029 35.3396 13.4381 35.3552C13.4736 35.0763 13.4963 34.766 13.5092 34.4213C13.5221 34.0766 13.5253 33.7475 13.5253 33.4341V32.3466C13.5253 32.0331 13.5189 31.7041 13.5092 31.3593L13.5027 31.3656Z" fill="#756A66"/>
<path d="M23.0703 32.8951C23.0703 32.4218 23.1479 32.0207 23.303 31.6885C23.458 31.3563 23.6616 31.0899 23.9104 30.883C24.1624 30.6762 24.4435 30.5289 24.757 30.4349C25.0704 30.3408 25.3806 30.2938 25.6875 30.2938C25.9945 30.2938 26.3144 30.3408 26.6246 30.4349C26.9347 30.5289 27.2126 30.6793 27.4647 30.883C27.7167 31.0899 27.917 31.3563 28.0721 31.6885C28.2272 32.0207 28.3047 32.4218 28.3047 32.8951C28.3047 33.3683 28.2272 33.7695 28.0721 34.1017C27.917 34.4339 27.7135 34.7003 27.4647 34.9072C27.2126 35.114 26.9347 35.2582 26.6246 35.3397C26.3144 35.4243 26.0042 35.465 25.6875 35.465C25.3709 35.465 25.0672 35.4243 24.757 35.3397C24.4435 35.255 24.1624 35.1109 23.9104 34.9072C23.6584 34.7003 23.4548 34.4339 23.303 34.1017C23.1479 33.7695 23.0703 33.3683 23.0703 32.8951ZM24.017 32.8951C24.017 33.1866 24.0429 33.4686 24.0978 33.7413C24.1527 34.014 24.2432 34.2553 24.3725 34.4684C24.5017 34.6815 24.673 34.8507 24.8894 34.9761C25.1059 35.1015 25.3709 35.1642 25.6875 35.1642C26.0042 35.1642 26.2691 35.1015 26.4856 34.9761C26.7021 34.8507 26.8734 34.6815 27.0026 34.4684C27.1318 34.2553 27.2223 34.014 27.2772 33.7413C27.3322 33.4686 27.358 33.1866 27.358 32.8951C27.358 32.6036 27.3322 32.3216 27.2772 32.0489C27.2223 31.7762 27.1318 31.5349 27.0026 31.3218C26.8734 31.1087 26.7021 30.9394 26.4856 30.8141C26.2691 30.6887 26.0042 30.626 25.6875 30.626C25.3709 30.626 25.1059 30.6887 24.8894 30.8141C24.673 30.9394 24.5017 31.1087 24.3725 31.3218C24.2432 31.5349 24.1527 31.7762 24.0978 32.0489C24.0429 32.3216 24.017 32.6036 24.017 32.8951Z" fill="#756A66"/>
<path d="M30.8251 32.7697C30.8251 32.5597 30.8251 32.3497 30.8186 32.1334C30.8154 31.9172 30.8122 31.7041 30.8089 31.4972C30.8057 31.2873 30.7992 31.0898 30.7863 30.9018C30.7766 30.7137 30.7605 30.5476 30.7378 30.4003C30.9382 30.4348 31.0997 30.4536 31.2225 30.4536C31.3453 30.4536 31.5068 30.4348 31.7072 30.4003C31.6716 30.7012 31.649 31.0209 31.6361 31.3656C31.6232 31.7103 31.6199 32.0394 31.6199 32.3528V33.4403C31.6199 33.8446 31.6264 34.2458 31.6426 34.6407C31.6555 35.0387 31.6652 35.4273 31.6652 35.8097C31.6652 36.1012 31.649 36.3707 31.6167 36.6183C31.5844 36.8659 31.4842 37.1072 31.3194 37.3454C31.1611 37.5679 30.9479 37.7528 30.6797 37.9001C30.4115 38.0474 30.1045 38.1258 29.7588 38.1414L29.7168 37.7873C29.7168 37.7873 29.7394 37.7998 29.7653 37.803C29.7911 37.8061 29.8202 37.8092 29.8557 37.8092C30.0625 37.8092 30.2305 37.7497 30.3566 37.6306C30.4826 37.5115 30.5795 37.3579 30.6538 37.1699C30.7249 36.9818 30.7734 36.7719 30.7928 36.5368C30.8154 36.3049 30.8251 36.073 30.8251 35.841V32.7697ZM30.6732 28.5794C30.6732 28.4321 30.7281 28.3068 30.8348 28.2033C30.9414 28.0999 31.0706 28.0466 31.2225 28.0466C31.3744 28.0466 31.5036 28.0999 31.6102 28.2033C31.7169 28.3068 31.7718 28.4321 31.7718 28.5794C31.7718 28.7267 31.7169 28.8521 31.6102 28.9555C31.5036 29.0589 31.3744 29.1122 31.2225 29.1122C31.0706 29.1122 30.9414 29.0589 30.8348 28.9555C30.7281 28.8521 30.6732 28.7267 30.6732 28.5794Z" fill="#756A66"/>
<path d="M34.1401 32.8951C34.1401 32.4218 34.2177 32.0207 34.3728 31.6885C34.5279 31.3563 34.7314 31.0899 34.9802 30.883C35.2323 30.6762 35.5134 30.5289 35.8268 30.4349C36.1402 30.3408 36.4504 30.2938 36.7574 30.2938C37.0643 30.2938 37.3842 30.3408 37.6944 30.4349C38.0046 30.5289 38.2824 30.6793 38.5345 30.883C38.7865 31.0899 38.9868 31.3563 39.1419 31.6885C39.297 32.0207 39.3746 32.4218 39.3746 32.8951C39.3746 33.3683 39.297 33.7695 39.1419 34.1017C38.9868 34.4339 38.7833 34.7003 38.5345 34.9072C38.2824 35.114 38.0046 35.2582 37.6944 35.3397C37.3842 35.4243 37.074 35.465 36.7574 35.465C36.4407 35.465 36.137 35.4243 35.8268 35.3397C35.5134 35.255 35.2323 35.1109 34.9802 34.9072C34.7282 34.7003 34.5246 34.4339 34.3728 34.1017C34.2177 33.7695 34.1401 33.3683 34.1401 32.8951ZM35.0901 32.8951C35.0901 33.1866 35.1159 33.4686 35.1709 33.7413C35.2258 34.014 35.3163 34.2553 35.4455 34.4684C35.5748 34.6815 35.746 34.8507 35.9625 34.9761C36.179 35.1015 36.4439 35.1642 36.7606 35.1642C37.0772 35.1642 37.3422 35.1015 37.5587 34.9761C37.7752 34.8507 37.9464 34.6815 38.0757 34.4684C38.2049 34.2553 38.2954 34.014 38.3503 33.7413C38.4052 33.4686 38.4311 33.1866 38.4311 32.8951C38.4311 32.6036 38.4052 32.3216 38.3503 32.0489C38.2954 31.7762 38.2049 31.5349 38.0757 31.3218C37.9464 31.1087 37.7752 30.9394 37.5587 30.8141C37.3422 30.6887 37.0772 30.626 36.7606 30.626C36.4439 30.626 36.179 30.6887 35.9625 30.8141C35.746 30.9394 35.5748 31.1087 35.4455 31.3218C35.3163 31.5349 35.2258 31.7762 35.1709 32.0489C35.1159 32.3216 35.0901 32.6036 35.0901 32.8951Z" fill="#756A66"/>
<path d="M47.9079 31.1399C47.8045 31.1055 47.6978 31.0867 47.5912 31.0867C47.42 31.0867 47.2649 31.1243 47.1292 31.2026C46.9935 31.2778 46.8771 31.3813 46.7834 31.5098C46.6897 31.6383 46.6186 31.7918 46.5669 31.9705C46.5152 32.1491 46.4926 32.3371 46.4926 32.5409V33.6911C46.4926 34.158 46.4926 34.5153 46.4991 34.7629C46.5023 35.0105 46.5152 35.2111 46.5379 35.3647C46.3957 35.3521 46.2503 35.3427 46.1081 35.3427C45.9498 35.3427 45.7979 35.349 45.6558 35.3647C45.6784 35.1296 45.6913 34.8068 45.6945 34.3994C45.6978 33.9919 45.701 33.4936 45.701 32.9013V32.5659C45.701 32.2933 45.701 31.9799 45.6945 31.6257C45.6913 31.2716 45.6784 30.8641 45.6558 30.4034C45.7333 30.416 45.8109 30.4285 45.8819 30.441C45.953 30.4504 46.0306 30.4567 46.1081 30.4567C46.1727 30.4567 46.2406 30.4504 46.3117 30.441C46.3828 30.4316 46.4603 30.4191 46.5379 30.4034C46.5088 30.6542 46.4926 30.8516 46.4894 30.9989C46.4862 31.1462 46.4829 31.2841 46.4829 31.4157L46.5055 31.4251C46.9288 30.673 47.4038 30.2969 47.9272 30.2969C47.9919 30.2969 48.0468 30.3 48.0953 30.3063C48.1405 30.3125 48.2019 30.3314 48.273 30.3596C48.2374 30.4442 48.2148 30.5695 48.2084 30.7419C48.2019 30.9112 48.1987 31.0679 48.1987 31.2058L48.1243 31.259C48.0888 31.2183 48.0177 31.1807 47.9143 31.1431L47.9079 31.1399Z" fill="#756A66"/>
<path d="M49.8433 33.0393C49.8433 32.1837 50.0533 31.5098 50.4733 31.0241C50.8934 30.5351 51.5041 30.2938 52.3086 30.2938C52.6899 30.2938 53.0162 30.3502 53.2941 30.4662C53.5688 30.5822 53.8014 30.7357 53.9888 30.9269C54.1762 31.1181 54.3152 31.3437 54.4024 31.6007C54.4929 31.8577 54.5381 32.1335 54.5381 32.425C54.5381 32.4939 54.5381 32.5629 54.5316 32.6287C54.5284 32.6945 54.5219 32.7635 54.5155 32.8324C54.1277 32.8261 53.7432 32.8199 53.362 32.8105C52.9807 32.8042 52.5962 32.8011 52.2085 32.8011C51.9726 32.8011 51.7367 32.8042 51.5041 32.8105C51.2714 32.8167 51.0356 32.823 50.7997 32.8324C50.7932 32.8669 50.79 32.9202 50.79 32.9891V33.1239C50.79 33.3965 50.832 33.6504 50.9128 33.8855C50.9968 34.1236 51.1163 34.3274 51.2747 34.4966C51.433 34.6658 51.6269 34.8037 51.8563 34.904C52.0857 35.0043 52.3506 35.0545 52.6544 35.0545C52.7965 35.0545 52.9452 35.0357 53.097 34.998C53.2489 34.9604 53.3943 34.9072 53.5397 34.8413C53.6818 34.7755 53.8176 34.6972 53.9436 34.6063C54.0696 34.5154 54.1794 34.4182 54.2731 34.3148L54.3281 34.3462L54.2635 34.857C54.047 35.0231 53.782 35.1673 53.4621 35.2864C53.1423 35.4055 52.8094 35.465 52.4669 35.465C52.0792 35.465 51.727 35.4086 51.4071 35.2926C51.0873 35.1767 50.8126 35.0106 50.5767 34.7912C50.3441 34.5718 50.1631 34.3117 50.0371 34.014C49.9111 33.7131 49.8497 33.3903 49.8497 33.0424L49.8433 33.0393ZM52.3312 30.6292C52.0663 30.6292 51.8401 30.6887 51.6592 30.8078C51.475 30.9269 51.3264 31.0742 51.2068 31.2528C51.0872 31.4315 51 31.6258 50.9386 31.8389C50.8772 32.052 50.8385 32.2526 50.8255 32.4407C51.0485 32.4469 51.2811 32.4532 51.5202 32.4626C51.7593 32.4689 51.9952 32.472 52.2246 32.472C52.454 32.472 52.7028 32.4689 52.9452 32.4626C53.1875 32.4563 53.4266 32.4501 53.656 32.4407C53.656 32.2526 53.6398 32.0552 53.6075 31.8452C53.5752 31.6352 53.5106 31.4409 53.4137 31.2591C53.3167 31.0773 53.181 30.9269 53.0098 30.8109C52.8385 30.6918 52.6123 30.6323 52.3312 30.6323V30.6292Z" fill="#756A66"/>
<path d="M56.5931 33.4372C56.5931 33.199 56.5931 32.942 56.5866 32.6631C56.5834 32.3842 56.5769 32.1084 56.5705 31.8326C56.564 31.5568 56.5543 31.2935 56.5446 31.0428C56.5349 30.7921 56.522 30.5758 56.5059 30.394C56.7062 30.4285 56.8677 30.4473 56.9905 30.4473C57.1133 30.4473 57.2749 30.4285 57.4752 30.394C57.4461 30.5758 57.4235 30.7482 57.4106 30.9174C57.3976 31.0835 57.388 31.2528 57.388 31.4189H57.4106C57.4623 31.306 57.5334 31.187 57.6271 31.0585C57.7208 30.93 57.8403 30.8077 57.9889 30.6918C58.1376 30.5758 58.3153 30.4818 58.5221 30.4034C58.7289 30.3282 58.968 30.2875 59.2329 30.2875C59.4979 30.2875 59.7758 30.3376 60.0407 30.4379C60.3057 30.5382 60.5415 30.6949 60.7451 30.9018C60.9487 31.1117 61.1135 31.3781 61.2395 31.7009C61.3655 32.0237 61.4269 32.4092 61.4269 32.8543C61.4269 33.2993 61.359 33.6879 61.2233 34.0139C61.0876 34.3398 60.9099 34.6125 60.6902 34.8287C60.4705 35.045 60.2217 35.2017 59.9406 35.3051C59.6594 35.4054 59.3816 35.4555 59.1005 35.4555C58.3121 35.4555 57.7466 35.1233 57.4106 34.462H57.388V35.1202C57.388 35.3427 57.388 35.5934 57.3944 35.8661C57.3977 36.1419 57.4041 36.4146 57.4106 36.6872C57.417 36.9599 57.4267 37.2169 57.4364 37.4645C57.4461 37.7121 57.459 37.922 57.4752 38.0976C57.2749 38.0631 57.1133 38.0443 56.9905 38.0443C56.8677 38.0443 56.7062 38.0631 56.5059 38.0976C56.5188 37.922 56.5317 37.7121 56.5446 37.4645C56.5543 37.2169 56.564 36.9568 56.5705 36.6872C56.5769 36.4146 56.5834 36.1419 56.5866 35.8661C56.5899 35.5903 56.5931 35.3427 56.5931 35.1202V33.4278V33.4372ZM60.4801 32.8511C60.4801 32.4343 60.4349 32.0896 60.3444 31.8169C60.254 31.5442 60.1409 31.328 59.9987 31.165C59.8598 31.002 59.6982 30.8892 59.5205 30.8265C59.3396 30.7639 59.1651 30.7325 58.9938 30.7325C58.7063 30.7325 58.4607 30.7921 58.2571 30.9112C58.0536 31.0302 57.8856 31.187 57.7563 31.3875C57.6271 31.585 57.5334 31.82 57.4752 32.0864C57.417 32.356 57.388 32.638 57.388 32.9389C57.388 34.3868 57.9114 35.1108 58.9615 35.1108C59.22 35.1108 59.443 35.0544 59.6336 34.9384C59.8242 34.8225 59.9826 34.6626 60.1086 34.4589C60.2346 34.2521 60.3283 34.0139 60.3897 33.7381C60.4511 33.4623 60.4801 33.1677 60.4801 32.8543V32.8511Z" fill="#756A66"/>
<path d="M63.7437 33.782C63.7437 33.4122 63.7501 33.0988 63.7598 32.8355C63.7695 32.5754 63.776 32.3153 63.776 32.0583C63.776 31.8138 63.776 31.5506 63.7695 31.2654C63.7663 30.9802 63.7598 30.6918 63.7533 30.3972C63.9343 30.4317 64.0829 30.4505 64.2057 30.4505C64.3188 30.4505 64.4674 30.4317 64.6484 30.3972C64.6128 30.814 64.587 31.2716 64.5676 31.7699C64.5482 32.2683 64.5417 32.7791 64.5417 33.2994C64.5417 33.6629 64.5741 33.9387 64.6387 34.1299C64.7033 34.3211 64.7808 34.4652 64.8745 34.5624C64.9747 34.6752 65.1007 34.7661 65.2558 34.8382C65.4109 34.9103 65.5919 34.9479 65.7987 34.9479C66.0991 34.9479 66.3512 34.8821 66.5515 34.7536C66.7518 34.6251 66.9005 34.4652 66.9942 34.2772C67.0459 34.1581 67.0846 34.0578 67.1137 33.9732C67.1428 33.8886 67.1654 33.7789 67.1848 33.6378C67.2042 33.4999 67.2139 33.3119 67.2171 33.0737C67.2204 32.8355 67.2236 32.5127 67.2236 32.1021V31.2246C67.2236 31.071 67.2236 30.9237 67.2171 30.7858C67.2139 30.6479 67.2074 30.5132 67.201 30.3878C67.2785 30.4004 67.3561 30.4129 67.4271 30.4254C67.4982 30.4348 67.5758 30.4411 67.6533 30.4411C67.7309 30.4411 67.8084 30.4348 67.8795 30.4254C67.9506 30.416 68.0217 30.4035 68.096 30.3878C68.0604 30.93 68.0378 31.4565 68.0314 31.9611C68.0249 32.4657 68.0217 33.0016 68.0217 33.5658C68.0217 33.8792 68.0249 34.1863 68.0314 34.484C68.0378 34.7849 68.0508 35.0732 68.0637 35.3522C67.9215 35.3396 67.7793 35.3302 67.6436 35.3302C67.5079 35.3302 67.3658 35.3365 67.2236 35.3522C67.23 35.2895 67.2365 35.2237 67.2397 35.1547C67.243 35.0858 67.2462 35.0106 67.2462 34.9353V34.4872H67.2236C67.0362 34.8225 66.7971 35.067 66.503 35.2237C66.209 35.3804 65.8891 35.4587 65.5434 35.4587C64.9844 35.4587 64.545 35.3146 64.2251 35.0262C63.9052 34.7379 63.7469 34.3211 63.7469 33.7789L63.7437 33.782Z" fill="#756A66"/>
<path d="M75.492 32.7478C75.492 33.1521 75.4306 33.5219 75.3046 33.8541C75.1786 34.1894 75.0073 34.4746 74.7876 34.716C74.5679 34.9573 74.3094 35.1422 74.0121 35.2707C73.7149 35.3992 73.3918 35.465 73.0493 35.465C72.7068 35.465 72.3933 35.3929 72.1187 35.2519C71.8408 35.1077 71.6308 34.9353 71.4886 34.7348C71.2301 34.9353 70.991 35.1391 70.7681 35.3396H70.5742C70.5871 35.1735 70.6001 34.9698 70.613 34.7348C70.6227 34.4966 70.6324 34.2458 70.6388 33.9763C70.6453 33.7068 70.6518 33.4341 70.655 33.1552C70.6582 32.8763 70.6615 32.6193 70.6615 32.3811V30.4912C70.6615 30.2562 70.6615 29.9961 70.655 29.7171C70.6518 29.4382 70.6453 29.1624 70.6388 28.8929C70.6324 28.6202 70.6227 28.3632 70.613 28.1156C70.6033 27.868 70.5904 27.6581 70.5742 27.4825C70.7745 27.517 70.9361 27.5358 71.0589 27.5358C71.1364 27.5358 71.2204 27.5296 71.3077 27.5202C71.3949 27.5107 71.4886 27.4982 71.5888 27.4825C71.5662 27.6204 71.55 27.843 71.5339 28.147C71.5209 28.451 71.508 28.7863 71.5016 29.1593C71.4951 29.5322 71.4886 29.9146 71.4789 30.3095C71.4725 30.7044 71.466 31.0585 71.4563 31.3813H71.4789C71.7213 31.0052 71.9927 30.7294 72.2867 30.5571C72.5808 30.3815 72.9233 30.2969 73.311 30.2969C73.6987 30.2969 74.0057 30.3659 74.2803 30.5006C74.5517 30.6354 74.7779 30.8172 74.9589 31.0397C75.1398 31.2622 75.2723 31.5223 75.3628 31.8169C75.4532 32.1115 75.4985 32.425 75.4985 32.7509L75.492 32.7478ZM74.5453 32.7164C74.5453 32.3967 74.5033 32.1115 74.4225 31.864C74.3385 31.6164 74.2319 31.4095 74.0994 31.2434C73.9669 31.0773 73.8118 30.9488 73.6373 30.8611C73.4629 30.7733 73.2787 30.7294 73.0945 30.7294C72.8716 30.7294 72.6583 30.7702 72.4547 30.8485C72.2512 30.93 72.0735 31.0616 71.9216 31.2465C71.7697 31.4315 71.6502 31.6728 71.5597 31.9674C71.4692 32.262 71.424 32.6287 71.424 33.058C71.424 34.459 71.9475 35.1579 72.9976 35.1579C73.2205 35.1579 73.4241 35.1014 73.6115 34.9855C73.7989 34.8695 73.9604 34.7066 74.1026 34.4903C74.2416 34.2741 74.3514 34.0171 74.4322 33.7162C74.5097 33.4185 74.5517 33.0831 74.5517 32.7133L74.5453 32.7164Z" fill="#756A66"/>
<path d="M78.0837 29.7202C78.0805 29.4413 78.074 29.1655 78.0676 28.8959C78.0611 28.6233 78.0514 28.3663 78.0417 28.1187C78.032 27.8711 78.0191 27.6611 78.0029 27.4856C78.2033 27.5201 78.3648 27.5389 78.4876 27.5389C78.6104 27.5389 78.7719 27.5201 78.9723 27.4856C78.9593 27.6611 78.9464 27.8711 78.9335 28.1187C78.9238 28.3663 78.9141 28.6264 78.9076 28.8959C78.9012 29.1686 78.8947 29.4413 78.8915 29.7202C78.8883 29.9991 78.885 30.2561 78.885 30.4943V32.3841C78.885 32.6223 78.885 32.8793 78.8915 33.1582C78.8947 33.4372 78.9012 33.713 78.9076 33.9825C78.9141 34.2552 78.9238 34.5122 78.9335 34.7566C78.9432 35.0011 78.9561 35.2017 78.9723 35.3615C78.8075 35.349 78.6459 35.3396 78.4876 35.3396C78.3293 35.3396 78.1677 35.3458 78.0029 35.3615C78.0159 35.2017 78.0288 35.0011 78.0417 34.7566C78.0514 34.5122 78.0611 34.2552 78.0676 33.9825C78.074 33.7098 78.0805 33.4372 78.0837 33.1582C78.0869 32.8793 78.0902 32.6223 78.0902 32.3841V30.4943C78.0902 30.2592 78.0902 29.9991 78.0837 29.7202Z" fill="#756A66"/>
<path d="M81.9771 28.5794C81.9771 28.4321 82.032 28.3068 82.1386 28.2033C82.2452 28.0999 82.3745 28.0466 82.5263 28.0466C82.6782 28.0466 82.8074 28.0999 82.9141 28.2033C83.0207 28.3068 83.0756 28.4321 83.0756 28.5794C83.0756 28.7267 83.0207 28.8521 82.9141 28.9555C82.8074 29.0589 82.6782 29.1122 82.5263 29.1122C82.3745 29.1122 82.2452 29.0589 82.1386 28.9555C82.032 28.8521 81.9771 28.7267 81.9771 28.5794ZM82.1289 32.3528C82.1289 32.0394 82.1225 31.7103 82.1128 31.3656C82.1031 31.0209 82.0772 30.698 82.0417 30.4003C82.242 30.4348 82.4036 30.4536 82.5263 30.4536C82.6491 30.4536 82.8107 30.4348 83.011 30.4003C82.9755 30.7012 82.9529 31.0209 82.9399 31.3656C82.927 31.7103 82.9238 32.0394 82.9238 32.3528V33.4403C82.9238 33.7538 82.9302 34.0828 82.9399 34.4276C82.9496 34.7723 82.9755 35.0826 83.011 35.3615C82.8462 35.349 82.6847 35.3396 82.5263 35.3396C82.368 35.3396 82.2065 35.3459 82.0417 35.3615C82.0772 35.0826 82.0998 34.7723 82.1128 34.4276C82.1257 34.0828 82.1289 33.7538 82.1289 33.4403V32.3528Z" fill="#756A66"/>
<path d="M85.5186 32.895C85.5186 32.4437 85.5961 32.052 85.7544 31.726C85.9127 31.4001 86.1195 31.1274 86.3748 30.9174C86.6301 30.7043 86.9209 30.5476 87.2537 30.4473C87.5832 30.347 87.9225 30.2969 88.265 30.2969C88.6592 30.2969 89.0146 30.3439 89.3248 30.4379C89.6382 30.5319 89.8612 30.6385 89.9969 30.7576C89.9452 30.861 89.9032 30.9707 89.8612 31.0867C89.8224 31.2026 89.7869 31.3217 89.7578 31.4471H89.6706C89.6189 31.3562 89.551 31.2653 89.467 31.1713C89.3798 31.0773 89.2796 30.9895 89.16 30.9112C89.0405 30.8297 88.9112 30.7639 88.7658 30.7137C88.6237 30.6604 88.4653 30.6354 88.2909 30.6354C87.9677 30.6354 87.6899 30.6918 87.4572 30.8077C87.2246 30.9237 87.0339 31.0804 86.8853 31.2841C86.7367 31.4847 86.6301 31.726 86.5622 31.9987C86.4944 32.2745 86.4588 32.5722 86.4588 32.8919C86.4588 33.6096 86.6171 34.1518 86.9338 34.5153C87.2504 34.882 87.7125 35.0638 88.3232 35.0638C88.4653 35.0638 88.614 35.045 88.7658 35.0074C88.9177 34.9698 89.0631 34.9165 89.2085 34.8507C89.3507 34.7848 89.4864 34.7065 89.6124 34.6156C89.7384 34.5247 89.8483 34.4276 89.942 34.3241L89.9969 34.3555C89.9614 34.5216 89.9387 34.694 89.9323 34.8663C89.7158 35.0324 89.4508 35.1766 89.131 35.2957C88.8111 35.4148 88.4783 35.4743 88.1358 35.4743C87.8256 35.4743 87.5154 35.4305 87.2052 35.3427C86.895 35.255 86.6107 35.1108 86.3586 34.9039C86.1066 34.6971 85.9031 34.4307 85.7512 34.1048C85.5961 33.7788 85.5186 33.3777 85.5186 32.9044V32.895Z" fill="#756A66"/>
<path d="M33.5973 24.8218C39.5326 24.8218 44.3441 20.1548 44.3441 14.3979C44.3441 8.64093 39.5326 3.974 33.5973 3.974C27.6621 3.974 22.8506 8.64093 22.8506 14.3979C22.8506 20.1548 27.6621 24.8218 33.5973 24.8218Z" fill="#756A66"/>
<path d="M79.237 24.8218C85.1723 24.8218 89.9837 20.1548 89.9837 14.3979C89.9837 8.64093 85.1723 3.974 79.237 3.974C73.3017 3.974 68.4902 8.64093 68.4902 14.3979C68.4902 20.1548 73.3017 24.8218 79.237 24.8218Z" fill="#756A66"/>
<path d="M56.4157 3.97083C50.4801 3.97083 45.6689 8.63744 45.6689 14.3947C45.6689 19.1397 48.9356 23.1419 53.4075 24.4049C53.7339 24.336 54.0085 24.1981 54.2347 23.9849C54.5675 23.6715 54.826 23.2672 55.0166 22.7721C55.2073 22.2769 55.33 21.719 55.385 21.1016C55.4431 20.4842 55.469 19.873 55.469 19.2682V11.1572C55.469 10.6056 55.4625 10.0446 55.4561 9.47424C55.4464 8.90384 55.4367 8.34284 55.427 7.79125C55.4173 7.23965 55.3979 6.71626 55.3688 6.21795C55.3397 5.72276 55.2977 5.28086 55.2396 4.89224C55.7695 4.98313 56.196 5.03014 56.5191 5.03014C56.8422 5.03014 57.2687 4.98313 57.7986 4.89224C57.7049 5.68202 57.6435 6.53449 57.6144 7.44336C57.5854 8.35224 57.5724 9.22351 57.5724 10.0509V12.9186C57.5724 13.9841 57.5918 15.0435 57.6306 16.0902C57.6694 17.137 57.6888 18.1681 57.6888 19.1804C57.6888 19.9514 57.6468 20.666 57.5595 21.3179C57.4755 21.9697 57.2138 22.6091 56.7776 23.2359C56.3608 23.8251 55.7953 24.3109 55.0845 24.6995C55.0651 24.7089 55.0457 24.7183 55.0263 24.7308C55.4819 24.7873 55.944 24.8186 56.4157 24.8186C62.3513 24.8186 67.1624 20.152 67.1624 14.3947C67.1624 8.63744 62.3513 3.97083 56.4157 3.97083Z" fill="#756A66"/>
<path d="M55.0713 1.40719C55.0713 1.0217 55.2135 0.689493 55.4978 0.413696C55.7821 0.137899 56.1246 0 56.5221 0C56.9195 0 57.262 0.137899 57.5463 0.413696C57.8307 0.689493 57.9728 1.0217 57.9728 1.40719C57.9728 1.79268 57.8307 2.12489 57.5463 2.40069C57.262 2.67649 56.9195 2.81439 56.5221 2.81439C56.1246 2.81439 55.7821 2.67649 55.4978 2.40069C55.2135 2.12489 55.0713 1.79268 55.0713 1.40719Z" fill="#E6B23A"/>
<path d="M3.21143 8.66565H3.26959C4.27447 7.01086 5.68647 6.18347 7.50883 6.18347C7.98381 6.18347 8.44586 6.25242 8.90145 6.39032C9.35704 6.52822 9.7674 6.71626 10.139 6.95445C10.5073 7.19264 10.8272 7.48411 11.0922 7.82259C11.3571 8.1642 11.5381 8.52462 11.6318 8.91324H11.6899C12.1455 8.02943 12.7659 7.35561 13.5543 6.8855C14.3394 6.41539 15.2474 6.18347 16.2717 6.18347C16.7176 6.18347 17.1376 6.22735 17.535 6.30883C15.6836 4.84836 13.3249 3.97083 10.7529 3.97083C7.84487 3.97083 5.20504 5.09282 3.26959 6.91371C3.23404 7.49664 3.21466 8.08271 3.21466 8.66565H3.21143Z" fill="#756A66"/>
<path d="M20.6114 10.2515C20.6146 10.3455 20.6178 10.4426 20.6178 10.5429C20.6178 10.8563 20.6081 11.1948 20.5888 11.5646C20.5694 11.9313 20.55 12.3607 20.5306 12.8465C20.5112 13.3354 20.4918 13.887 20.4724 14.5013C20.4531 15.1187 20.4434 15.8301 20.4434 16.6387C20.4434 17.1339 20.4466 17.6134 20.4563 18.0741C20.4595 18.3091 20.4692 18.5567 20.4821 18.8137C21.1284 17.4723 21.4902 15.9774 21.4902 14.3978C21.4902 12.9248 21.1736 11.5239 20.6049 10.2515H20.6114Z" fill="#756A66"/>
<path d="M1.06286 17.0931C1.09194 16.1842 1.10486 15.313 1.10486 14.4856V11.6179C1.10486 11.0413 1.0984 10.4458 1.08224 9.82837C0.387549 11.2074 -0.00341797 12.7587 -0.00341797 14.3978C-0.00341797 15.9429 0.342313 17.4097 0.965922 18.7291C1.01116 18.2214 1.04347 17.6761 1.05963 17.0963L1.06286 17.0931Z" fill="#756A66"/>
<path d="M19.9068 19.5063H18.6822C18.4722 19.5063 18.2654 19.5252 18.0553 19.5628C18.1135 19.1021 18.1749 18.1744 18.2395 16.7766C18.3074 15.3788 18.3397 13.4294 18.3397 10.9284C18.3397 10.4677 18.288 10.0352 18.1846 9.63092C18.0812 9.22663 17.9132 8.87562 17.687 8.58415C17.4608 8.28955 17.1571 8.05449 16.7758 7.88212C16.3978 7.70661 15.9228 7.61886 15.3541 7.61886C14.6724 7.61886 14.094 7.74735 13.619 8.00435C13.144 8.26134 12.7757 8.56534 12.5107 8.91322C12.3589 9.11694 12.2393 9.31752 12.1553 9.52123C12.0713 9.72495 12.0034 10.0321 11.955 10.4458C11.9065 10.8595 11.8742 11.4393 11.8548 12.1852C11.8354 12.9311 11.8257 13.9559 11.8257 15.2597C11.8257 16.0495 11.8386 16.7734 11.8677 17.4253C11.8968 18.0772 11.9291 18.7918 11.9679 19.5628C11.5317 19.5252 11.1149 19.5063 10.7174 19.5063C10.32 19.5063 9.9032 19.5252 9.46699 19.5628C9.5607 18.5505 9.62855 17.5225 9.66732 16.4726C9.7061 15.4258 9.72548 14.3947 9.72548 13.3824C9.72548 12.5174 9.71902 11.8436 9.71256 11.3547C9.70287 10.8689 9.68025 10.4803 9.64148 10.1951C9.6027 9.90985 9.551 9.6748 9.48638 9.49303C9.41853 9.30812 9.33129 9.10754 9.21497 8.88502C9.00494 8.53714 8.6786 8.23627 8.2327 7.98868C7.7868 7.74109 7.32798 7.61572 6.85301 7.61572C5.60256 7.61572 4.68169 8.01061 4.09362 8.8004C3.50555 9.59018 3.21152 10.7028 3.21152 12.1382V14.4824C3.21152 15.3098 3.22444 16.178 3.25352 17.09C3.2826 17.9989 3.344 18.8231 3.4377 19.5596C3.0015 19.522 2.57499 19.5032 2.15817 19.5032C1.90614 19.5032 1.65088 19.5095 1.38916 19.5252C3.23414 22.6843 6.73345 24.8186 10.7465 24.8186C14.7596 24.8186 18.2686 22.678 20.1136 19.5095C20.0457 19.5063 19.9746 19.5032 19.9068 19.5032V19.5063Z" fill="#756A66"/>
</g>
<defs>
<clipPath id="clip0_2002_282">
<rect width="90" height="38.1384" fill="white"/>
</clipPath>
</defs>
</svg>
