<svg width="409" height="179" viewBox="0 0 409 179" fill="none" xmlns="http://www.w3.org/2000/svg">
<g clip-path="url(#clip0_2001_202)">
<path d="M6.10639 131.442C5.61005 131.442 5.09116 131.442 4.54971 131.457C4.00826 131.465 3.4668 131.487 2.92535 131.517C2.3839 131.547 1.85748 131.578 1.35363 131.615C0.84978 131.653 0.398569 131.698 0 131.758C0.0977623 131.412 0.142883 131.11 0.142883 130.847C0.142883 130.636 0.0977623 130.342 0 129.958C1.25587 129.996 2.48166 130.026 3.67737 130.056C4.87308 130.086 6.09887 130.101 7.35474 130.101C8.61061 130.101 9.8364 130.086 11.0321 130.056C12.2278 130.026 13.4536 129.996 14.7095 129.958C14.6117 130.342 14.5666 130.643 14.5666 130.869C14.5666 131.118 14.6117 131.412 14.7095 131.758C14.3109 131.698 13.8597 131.653 13.3558 131.615C12.852 131.578 12.3256 131.547 11.7841 131.517C11.2427 131.487 10.7012 131.472 10.1598 131.457C9.61831 131.449 9.09942 131.442 8.60309 131.442C8.54292 133.401 8.52036 135.374 8.52036 137.356V142.275C8.52036 143.533 8.54292 144.768 8.59557 145.989C8.64069 147.209 8.69333 148.407 8.75349 149.59C8.31732 149.552 7.85107 149.53 7.35474 149.53C6.8584 149.53 6.39215 149.552 5.95598 149.59C6.01614 148.407 6.06879 147.209 6.11391 145.989C6.15903 144.768 6.18911 143.533 6.18911 142.275V137.356C6.18911 135.374 6.15903 133.401 6.10639 131.442Z" fill="white"/>
<path d="M17.8153 134.161C17.8077 133.401 17.7927 132.647 17.7701 131.901C17.7476 131.156 17.725 130.448 17.7025 129.77C17.6724 129.092 17.6423 128.519 17.6047 128.037C18.1386 128.135 18.5673 128.18 18.8906 128.18C19.214 128.18 19.6427 128.135 20.1766 128.037C20.139 128.511 20.1089 129.084 20.0788 129.754C20.0487 130.425 20.0262 131.126 20.0111 131.856C19.9886 132.587 19.9811 133.325 19.966 134.071C19.9585 134.817 19.951 135.502 19.951 136.128V138.297H20.0111C20.5451 137.476 21.1843 136.843 21.9213 136.399C22.6658 135.954 23.5456 135.728 24.5759 135.728C25.1098 135.728 25.6438 135.804 26.1852 135.954C26.7267 136.105 27.2155 136.369 27.6516 136.738C28.0878 137.107 28.4488 137.612 28.7195 138.252C28.9978 138.892 29.1331 139.706 29.1331 140.693C29.1331 141.514 29.1106 142.358 29.073 143.224C29.0354 144.09 29.0128 145.01 29.0128 145.981V147.842C29.0128 148.151 29.0128 148.445 29.0278 148.746C29.0354 149.04 29.0504 149.326 29.073 149.59C28.6894 149.552 28.2909 149.53 27.8773 149.53C27.4636 149.53 27.0876 149.552 26.7041 149.59C26.7417 148.603 26.7868 147.578 26.8319 146.531C26.8771 145.484 26.9071 144.407 26.9071 143.299V141.559C26.9071 140.128 26.6289 139.051 26.0799 138.312C25.531 137.582 24.7639 137.212 23.7938 137.212C22.4627 137.212 21.4851 137.619 20.8684 138.44C20.2518 139.262 19.9435 140.414 19.9435 141.898C19.9435 142.433 19.9435 143.051 19.9585 143.759C19.966 144.467 19.9811 145.175 20.0036 145.891C20.0187 146.607 20.0487 147.3 20.0713 147.963C20.1014 148.633 20.1315 149.175 20.1691 149.59C19.7329 149.552 19.3042 149.53 18.8831 149.53C18.462 149.53 18.0333 149.552 17.5972 149.59C17.6348 149.153 17.6724 148.603 17.6949 147.932C17.725 147.262 17.7476 146.561 17.7626 145.816C17.7852 145.07 17.7927 144.316 17.8077 143.556C17.8153 142.795 17.8228 142.087 17.8228 141.439V136.263C17.8228 135.615 17.8228 134.907 17.8077 134.146L17.8153 134.161Z" fill="white"/>
<path d="M33.728 143.247C33.728 140.904 34.2845 139.066 35.3975 137.732C36.5105 136.399 38.1349 135.728 40.2631 135.728C41.2708 135.728 42.1431 135.887 42.8726 136.203C43.602 136.519 44.2187 136.934 44.715 137.461C45.2113 137.988 45.5723 138.599 45.813 139.307C46.0536 140.015 46.1664 140.761 46.1664 141.567C46.1664 141.755 46.1664 141.943 46.1514 142.124C46.1438 142.305 46.1288 142.493 46.1062 142.682C45.076 142.659 44.0608 142.644 43.0531 142.621C42.0453 142.599 41.0301 142.591 39.9999 142.591C39.3757 142.591 38.7515 142.599 38.1273 142.621C37.5107 142.644 36.8865 142.659 36.2623 142.682C36.2398 142.78 36.2322 142.923 36.2322 143.111V143.48C36.2322 144.226 36.3451 144.919 36.5631 145.567C36.7812 146.215 37.0971 146.772 37.5182 147.239C37.9393 147.706 38.4507 148.076 39.0598 148.354C39.669 148.633 40.3683 148.769 41.173 148.769C41.5565 148.769 41.9401 148.716 42.3462 148.61C42.7447 148.505 43.1358 148.362 43.5193 148.181C43.9028 148 44.2563 147.789 44.5872 147.541C44.9181 147.292 45.2113 147.028 45.4595 146.742L45.6024 146.825L45.4294 148.226C44.8579 148.686 44.151 149.078 43.3012 149.401C42.4514 149.725 41.5716 149.884 40.6616 149.884C39.6314 149.884 38.6989 149.725 37.8491 149.409C36.9993 149.093 36.2698 148.641 35.6532 148.038C35.0365 147.435 34.5552 146.727 34.2244 145.906C33.8935 145.085 33.728 144.203 33.728 143.247ZM40.3157 136.647C39.6088 136.647 39.0147 136.813 38.5334 137.13C38.0521 137.454 37.646 137.86 37.3377 138.342C37.0294 138.825 36.7887 139.359 36.6233 139.94C36.4579 140.52 36.3601 141.07 36.3225 141.582C36.9091 141.604 37.5257 141.619 38.1649 141.642C38.8041 141.665 39.4283 141.672 40.0299 141.672C40.6316 141.672 41.2933 141.665 41.9401 141.642C42.5868 141.619 43.211 141.604 43.8201 141.582C43.8201 141.07 43.775 140.527 43.6923 139.955C43.6095 139.382 43.4366 138.847 43.1809 138.35C42.9252 137.853 42.5642 137.446 42.113 137.122C41.6543 136.798 41.0602 136.64 40.3157 136.64V136.647Z" fill="white"/>
<path d="M61.3646 147.209C61.3119 145.59 61.2067 144.083 61.0487 142.674C61.9587 142.84 62.6956 142.923 63.2521 142.923C63.5153 142.923 63.8011 142.9 64.1094 142.847C64.4178 142.795 64.7863 142.742 65.2074 142.674C65.1096 143.985 65.057 145.288 65.057 146.599H65.1547C66.8844 143.661 69.3134 142.185 72.4493 142.185C73.2615 142.185 74.0662 142.305 74.8483 142.554C75.6304 142.802 76.3448 143.134 76.9765 143.556C77.6157 143.977 78.1571 144.497 78.6159 145.1C79.0746 145.703 79.3829 146.35 79.5484 147.036H79.6461C80.4282 145.469 81.4961 144.264 82.8497 143.435C84.2034 142.599 85.76 142.185 87.5198 142.185C88.5951 142.185 89.5878 142.335 90.5053 142.629C91.4152 142.923 92.2124 143.382 92.8817 144C93.5509 144.618 94.0698 145.424 94.4458 146.403C94.8219 147.383 95.0099 148.558 95.0099 149.936C95.0099 150.494 94.9948 151.096 94.9572 151.752C94.9271 152.407 94.8895 153.168 94.8595 154.034C94.8294 154.901 94.7918 155.88 94.7617 156.972C94.7316 158.065 94.7091 159.33 94.7091 160.769C94.7091 161.651 94.7166 162.502 94.7316 163.316C94.7467 164.129 94.7918 165.018 94.8519 165.96C94.491 165.892 94.1375 165.862 93.7766 165.862H91.6709C91.3099 165.862 90.949 165.892 90.5955 165.96C90.6933 165.146 90.7986 163.496 90.9114 161.01C91.0242 158.524 91.0843 155.059 91.0843 150.614C91.0843 149.801 90.9941 149.032 90.8136 148.309C90.6331 147.593 90.3474 146.968 89.9563 146.448C89.5653 145.929 89.0388 145.507 88.3921 145.198C87.7378 144.889 86.9257 144.731 85.948 144.731C84.7749 144.731 83.7747 144.957 82.9625 145.416C82.1428 145.876 81.5111 146.411 81.0524 147.036C80.7892 147.398 80.5862 147.752 80.4433 148.113C80.2929 148.475 80.1801 149.017 80.0973 149.756C80.0146 150.494 79.962 151.518 79.9244 152.844C79.8943 154.17 79.8717 155.993 79.8717 158.313C79.8717 159.722 79.8943 161.003 79.9469 162.163C79.9996 163.323 80.0522 164.589 80.1199 165.96C79.3679 165.892 78.6535 165.862 77.9691 165.862C77.2848 165.862 76.5629 165.892 75.8184 165.96C75.9838 164.159 76.0966 162.329 76.1643 160.468C76.232 158.607 76.2621 156.777 76.2621 154.976C76.2621 153.439 76.2545 152.242 76.2395 151.375C76.2245 150.509 76.1793 149.823 76.1192 149.319C76.0515 148.814 75.9612 148.4 75.8484 148.068C75.7356 147.744 75.5777 147.383 75.3822 146.991C75.0212 146.373 74.4572 145.838 73.6901 145.394C72.9231 144.949 72.1335 144.731 71.3138 144.731C69.163 144.731 67.5762 145.431 66.5685 146.84C65.5533 148.249 65.0495 150.223 65.0495 152.769V156.935C65.0495 158.404 65.072 159.948 65.1247 161.568C65.1773 163.187 65.2826 164.649 65.4405 165.952C64.6885 165.884 63.9515 165.854 63.2371 165.854C62.5227 165.854 61.7857 165.884 61.0337 165.952C61.1991 164.649 61.3044 163.18 61.3495 161.568C61.4022 159.948 61.4247 158.404 61.4247 156.935V151.835C61.4247 150.366 61.4022 148.821 61.3495 147.202L61.3646 147.209Z" fill="white"/>
<path d="M104.846 154.389C104.846 152.166 105.2 150.275 105.899 148.723C106.598 147.172 107.523 145.913 108.666 144.949C109.81 143.985 111.088 143.284 112.509 142.84C113.931 142.395 115.337 142.177 116.743 142.177C118.149 142.177 119.601 142.395 121 142.84C122.398 143.284 123.677 143.985 124.82 144.949C125.963 145.913 126.88 147.172 127.587 148.723C128.287 150.275 128.64 152.166 128.64 154.389C128.64 156.611 128.287 158.502 127.587 160.054C126.888 161.605 125.963 162.864 124.82 163.828C123.677 164.792 122.406 165.47 121 165.862C119.593 166.254 118.179 166.449 116.743 166.449C115.307 166.449 113.931 166.254 112.509 165.862C111.088 165.47 109.81 164.792 108.666 163.828C107.523 162.864 106.606 161.605 105.899 160.054C105.2 158.502 104.846 156.611 104.846 154.389ZM109.148 154.389C109.148 155.76 109.268 157.085 109.516 158.359C109.764 159.632 110.178 160.769 110.765 161.764C111.351 162.758 112.133 163.557 113.111 164.144C114.088 164.732 115.299 165.026 116.736 165.026C118.172 165.026 119.375 164.732 120.36 164.144C121.338 163.557 122.12 162.766 122.707 161.764C123.293 160.769 123.707 159.632 123.955 158.359C124.203 157.085 124.323 155.76 124.323 154.389C124.323 153.017 124.203 151.692 123.955 150.418C123.707 149.145 123.293 148.008 122.707 147.013C122.12 146.019 121.338 145.22 120.36 144.633C119.383 144.045 118.172 143.751 116.736 143.751C115.299 143.751 114.096 144.045 113.111 144.633C112.133 145.22 111.351 146.011 110.765 147.013C110.178 148.008 109.764 149.145 109.516 150.418C109.268 151.692 109.148 153.017 109.148 154.389Z" fill="white"/>
<path d="M140.078 153.801C140.078 152.822 140.071 151.827 140.056 150.81C140.041 149.801 140.026 148.799 140.003 147.819C139.988 146.84 139.951 145.906 139.905 145.025C139.853 144.143 139.785 143.36 139.687 142.674C140.597 142.84 141.334 142.923 141.891 142.923C142.447 142.923 143.177 142.84 144.094 142.674C143.929 144.083 143.823 145.59 143.778 147.209C143.733 148.829 143.703 150.373 143.703 151.842V156.942C143.703 158.841 143.733 160.717 143.801 162.577C143.869 164.438 143.899 166.269 143.899 168.069C143.899 169.44 143.823 170.706 143.681 171.866C143.53 173.026 143.086 174.164 142.334 175.271C141.62 176.318 140.642 177.184 139.424 177.87C138.198 178.556 136.807 178.932 135.243 179L135.047 177.335C135.047 177.335 135.153 177.395 135.265 177.41C135.378 177.426 135.521 177.433 135.679 177.433C136.627 177.433 137.386 177.154 137.958 176.597C138.529 176.039 138.98 175.324 139.304 174.442C139.627 173.561 139.845 172.574 139.943 171.474C140.041 170.382 140.093 169.289 140.093 168.212V153.801H140.078ZM139.394 134.139C139.394 133.453 139.642 132.866 140.131 132.376C140.62 131.886 141.206 131.638 141.891 131.638C142.575 131.638 143.162 131.886 143.65 132.376C144.139 132.866 144.387 133.453 144.387 134.139C144.387 134.824 144.139 135.412 143.65 135.902C143.162 136.391 142.575 136.64 141.891 136.64C141.206 136.64 140.62 136.391 140.131 135.902C139.642 135.412 139.394 134.824 139.394 134.139Z" fill="white"/>
<path d="M155.156 154.389C155.156 152.166 155.51 150.275 156.209 148.723C156.908 147.172 157.833 145.913 158.976 144.949C160.12 143.985 161.398 143.284 162.819 142.84C164.241 142.395 165.647 142.177 167.053 142.177C168.459 142.177 169.911 142.395 171.31 142.84C172.708 143.284 173.987 143.985 175.13 144.949C176.273 145.913 177.19 147.172 177.897 148.723C178.597 150.275 178.95 152.166 178.95 154.389C178.95 156.611 178.597 158.502 177.897 160.054C177.198 161.605 176.273 162.864 175.13 163.828C173.987 164.792 172.716 165.47 171.31 165.862C169.903 166.254 168.49 166.449 167.053 166.449C165.617 166.449 164.241 166.254 162.819 165.862C161.398 165.47 160.12 164.792 158.976 163.828C157.833 162.864 156.916 161.605 156.209 160.054C155.51 158.502 155.156 156.611 155.156 154.389ZM159.458 154.389C159.458 155.76 159.578 157.085 159.826 158.359C160.074 159.632 160.488 160.769 161.075 161.764C161.661 162.758 162.443 163.557 163.421 164.144C164.399 164.732 165.609 165.026 167.046 165.026C168.482 165.026 169.685 164.732 170.67 164.144C171.648 163.557 172.43 162.766 173.017 161.764C173.603 160.769 174.017 159.632 174.265 158.359C174.513 157.085 174.634 155.76 174.634 154.389C174.634 153.017 174.513 151.692 174.265 150.418C174.017 149.145 173.603 148.008 173.017 147.013C172.43 146.019 171.648 145.22 170.67 144.633C169.693 144.045 168.482 143.751 167.046 143.751C165.609 143.751 164.406 144.045 163.421 144.633C162.443 145.22 161.661 146.011 161.075 147.013C160.488 148.008 160.074 149.145 159.826 150.418C159.578 151.692 159.458 153.017 159.458 154.389Z" fill="white"/>
<path d="M217.724 146.155C217.25 145.989 216.769 145.906 216.28 145.906C215.498 145.906 214.799 146.087 214.175 146.448C213.558 146.81 213.032 147.292 212.61 147.895C212.189 148.497 211.858 149.221 211.633 150.049C211.407 150.886 211.287 151.774 211.287 152.724V158.118C211.287 160.31 211.294 161.982 211.309 163.142C211.324 164.302 211.385 165.244 211.482 165.96C210.828 165.892 210.174 165.862 209.527 165.862C208.805 165.862 208.121 165.892 207.474 165.96C207.572 164.852 207.632 163.338 207.647 161.425C207.662 159.511 207.67 157.168 207.67 154.389V152.822C207.67 151.548 207.662 150.079 207.647 148.407C207.632 146.742 207.572 144.829 207.474 142.674C207.835 142.742 208.173 142.795 208.504 142.847C208.828 142.9 209.174 142.923 209.535 142.923C209.828 142.923 210.136 142.9 210.467 142.847C210.791 142.795 211.136 142.742 211.497 142.674C211.37 143.849 211.294 144.784 211.279 145.469C211.264 146.155 211.257 146.81 211.257 147.428L211.355 147.48C213.28 143.947 215.43 142.185 217.814 142.185C218.108 142.185 218.363 142.2 218.574 142.237C218.784 142.267 219.055 142.35 219.379 142.486C219.213 142.878 219.115 143.473 219.085 144.279C219.055 145.077 219.033 145.808 219.033 146.463L218.687 146.712C218.521 146.516 218.205 146.335 217.732 146.17L217.724 146.155Z" fill="white"/>
<path d="M226.508 155.074C226.508 151.051 227.463 147.902 229.373 145.612C231.283 143.322 234.066 142.177 237.72 142.177C239.45 142.177 240.939 142.448 242.195 142.983C243.451 143.525 244.504 144.241 245.353 145.138C246.203 146.034 246.827 147.089 247.241 148.302C247.647 149.514 247.85 150.803 247.85 152.174C247.85 152.498 247.843 152.822 247.828 153.13C247.812 153.439 247.782 153.763 247.752 154.087C245.993 154.057 244.248 154.019 242.518 153.989C240.789 153.959 239.044 153.937 237.284 153.937C236.209 153.937 235.141 153.952 234.081 153.989C233.02 154.019 231.952 154.057 230.877 154.087C230.847 154.253 230.824 154.494 230.824 154.825V155.466C230.824 156.739 231.012 157.937 231.388 159.044C231.764 160.159 232.313 161.108 233.028 161.914C233.742 162.713 234.63 163.353 235.667 163.828C236.713 164.302 237.916 164.536 239.292 164.536C239.946 164.536 240.616 164.446 241.3 164.265C241.984 164.084 242.654 163.843 243.308 163.526C243.962 163.218 244.571 162.848 245.143 162.427C245.714 162.005 246.211 161.545 246.639 161.056L246.887 161.206L246.594 163.609C245.617 164.393 244.398 165.063 242.947 165.621C241.496 166.178 239.984 166.457 238.42 166.457C236.66 166.457 235.051 166.186 233.599 165.651C232.148 165.108 230.892 164.325 229.832 163.3C228.771 162.268 227.952 161.056 227.388 159.647C226.816 158.246 226.53 156.724 226.53 155.089L226.508 155.074ZM237.811 143.751C236.6 143.751 235.585 144.03 234.75 144.588C233.915 145.145 233.231 145.838 232.697 146.674C232.155 147.511 231.749 148.422 231.471 149.416C231.193 150.411 231.02 151.353 230.96 152.234C231.967 152.264 233.02 152.302 234.118 152.332C235.209 152.362 236.277 152.385 237.322 152.385C238.367 152.385 239.488 152.37 240.601 152.332C241.706 152.302 242.789 152.264 243.834 152.234C243.834 151.353 243.759 150.418 243.616 149.439C243.466 148.46 243.173 147.541 242.736 146.697C242.293 145.846 241.684 145.145 240.901 144.588C240.119 144.03 239.089 143.751 237.818 143.751H237.811Z" fill="white"/>
<path d="M257.19 156.935C257.19 155.827 257.183 154.615 257.168 153.304C257.153 152 257.123 150.697 257.093 149.409C257.062 148.121 257.017 146.885 256.972 145.71C256.92 144.535 256.867 143.518 256.799 142.674C257.709 142.84 258.446 142.923 259.003 142.923C259.559 142.923 260.289 142.84 261.206 142.674C261.078 143.525 260.98 144.339 260.913 145.123C260.845 145.906 260.815 146.689 260.815 147.473H260.913C261.138 146.953 261.469 146.388 261.89 145.778C262.312 145.175 262.86 144.603 263.53 144.06C264.199 143.518 265.004 143.073 265.951 142.712C266.899 142.35 267.974 142.169 269.177 142.169C270.381 142.169 271.644 142.411 272.847 142.878C274.051 143.352 275.126 144.075 276.051 145.062C276.983 146.042 277.728 147.292 278.299 148.814C278.871 150.336 279.157 152.136 279.157 154.23C279.157 156.325 278.848 158.133 278.224 159.669C277.608 161.206 276.795 162.479 275.803 163.496C274.81 164.513 273.675 165.252 272.404 165.726C271.133 166.201 269.862 166.434 268.583 166.434C264.996 166.434 262.432 164.882 260.898 161.779H260.8V164.867C260.8 165.915 260.807 167.082 260.823 168.37C260.838 169.659 260.86 170.947 260.898 172.22C260.928 173.493 260.973 174.714 261.018 175.874C261.071 177.034 261.123 178.021 261.191 178.842C260.281 178.676 259.544 178.593 258.988 178.593C258.431 178.593 257.702 178.676 256.784 178.842C256.852 178.021 256.905 177.034 256.957 175.874C257.01 174.714 257.047 173.493 257.077 172.22C257.108 170.947 257.138 169.659 257.153 168.37C257.168 167.082 257.175 165.915 257.175 164.867V156.927L257.19 156.935ZM274.863 154.193C274.863 152.234 274.66 150.614 274.254 149.341C273.847 148.068 273.321 147.044 272.689 146.275C272.05 145.507 271.328 144.979 270.509 144.678C269.689 144.384 268.892 144.234 268.11 144.234C266.801 144.234 265.688 144.512 264.756 145.07C263.823 145.627 263.064 146.366 262.477 147.3C261.89 148.234 261.462 149.326 261.206 150.584C260.943 151.842 260.815 153.176 260.815 154.577C260.815 161.372 263.199 164.777 267.959 164.777C269.132 164.777 270.155 164.506 271.02 163.971C271.885 163.429 272.599 162.683 273.171 161.718C273.742 160.754 274.163 159.624 274.442 158.336C274.72 157.048 274.855 155.662 274.855 154.193H274.863Z" fill="white"/>
<path d="M289.685 158.554C289.685 156.822 289.707 155.345 289.76 154.117C289.812 152.889 289.835 151.677 289.835 150.464C289.835 149.319 289.827 148.076 289.812 146.735C289.797 145.394 289.775 144.038 289.737 142.667C290.549 142.832 291.241 142.915 291.79 142.915C292.309 142.915 292.978 142.832 293.798 142.667C293.633 144.625 293.512 146.78 293.43 149.115C293.347 151.451 293.309 153.846 293.309 156.294C293.309 157.997 293.46 159.293 293.753 160.189C294.046 161.086 294.407 161.764 294.828 162.223C295.287 162.743 295.866 163.18 296.566 163.519C297.265 163.865 298.092 164.031 299.04 164.031C300.408 164.031 301.551 163.73 302.469 163.127C303.379 162.525 304.048 161.779 304.477 160.897C304.702 160.34 304.883 159.865 305.018 159.474C305.146 159.082 305.251 158.562 305.334 157.907C305.417 157.251 305.462 156.37 305.484 155.262C305.5 154.155 305.507 152.633 305.507 150.705V146.584C305.507 145.868 305.5 145.183 305.484 144.527C305.469 143.872 305.439 143.254 305.409 142.667C305.77 142.734 306.109 142.787 306.44 142.84C306.763 142.893 307.109 142.915 307.47 142.915C307.831 142.915 308.169 142.893 308.5 142.84C308.823 142.787 309.154 142.734 309.478 142.667C309.312 145.213 309.214 147.676 309.184 150.042C309.154 152.415 309.132 154.923 309.132 157.568C309.132 159.037 309.147 160.475 309.184 161.884C309.214 163.293 309.267 164.649 309.335 165.952C308.681 165.884 308.049 165.854 307.425 165.854C306.8 165.854 306.169 165.884 305.515 165.952C305.545 165.658 305.575 165.35 305.59 165.018C305.605 164.694 305.612 164.348 305.612 163.986V161.877H305.515C304.665 163.444 303.574 164.596 302.236 165.334C300.897 166.073 299.446 166.434 297.882 166.434C295.34 166.434 293.339 165.756 291.888 164.4C290.437 163.044 289.707 161.093 289.707 158.539L289.685 158.554Z" fill="white"/>
<path d="M343.078 153.703C343.078 155.601 342.792 157.334 342.221 158.901C341.649 160.468 340.867 161.816 339.874 162.946C338.882 164.076 337.701 164.943 336.347 165.545C334.994 166.148 333.535 166.449 331.971 166.449C330.406 166.449 328.993 166.11 327.737 165.447C326.481 164.777 325.526 163.971 324.872 163.022C323.698 163.971 322.6 164.92 321.593 165.862H320.713C320.781 165.078 320.833 164.129 320.886 163.022C320.939 161.914 320.976 160.724 321.006 159.466C321.036 158.208 321.066 156.927 321.081 155.616C321.096 154.313 321.104 153.1 321.104 151.985V143.111C321.104 142.004 321.096 140.791 321.081 139.48C321.066 138.177 321.036 136.881 321.006 135.608C320.976 134.335 320.931 133.114 320.886 131.954C320.833 130.794 320.781 129.807 320.713 128.986C321.623 129.152 322.36 129.235 322.916 129.235C323.277 129.235 323.653 129.212 324.044 129.159C324.435 129.107 324.857 129.054 325.315 128.986C325.217 129.641 325.135 130.681 325.067 132.097C324.999 133.521 324.954 135.103 324.917 136.851C324.887 138.599 324.849 140.399 324.819 142.245C324.789 144.09 324.751 145.77 324.721 147.27H324.819C325.924 145.507 327.15 144.211 328.489 143.397C329.827 142.584 331.376 142.169 333.136 142.169C334.896 142.169 336.302 142.486 337.543 143.126C338.784 143.766 339.807 144.603 340.626 145.65C341.439 146.697 342.055 147.91 342.461 149.304C342.867 150.69 343.07 152.159 343.07 153.688L343.078 153.703ZM338.776 153.552C338.776 152.046 338.588 150.72 338.212 149.56C337.836 148.4 337.348 147.428 336.746 146.644C336.144 145.861 335.437 145.266 334.64 144.851C333.843 144.444 333.016 144.241 332.166 144.241C331.151 144.241 330.181 144.429 329.256 144.806C328.323 145.183 327.519 145.8 326.834 146.667C326.15 147.533 325.601 148.663 325.195 150.049C324.789 151.435 324.586 153.146 324.586 155.172C324.586 161.741 326.97 165.026 331.73 165.026C332.738 165.026 333.67 164.754 334.52 164.22C335.37 163.677 336.114 162.901 336.746 161.892C337.385 160.882 337.881 159.669 338.242 158.261C338.603 156.859 338.784 155.285 338.784 153.552H338.776Z" fill="white"/>
<path d="M354.847 139.488C354.832 138.184 354.802 136.889 354.772 135.615C354.742 134.342 354.697 133.122 354.651 131.962C354.599 130.802 354.546 129.815 354.479 128.994C355.388 129.159 356.125 129.242 356.682 129.242C357.238 129.242 357.968 129.159 358.885 128.994C358.818 129.815 358.765 130.802 358.712 131.962C358.66 133.122 358.622 134.342 358.592 135.615C358.562 136.889 358.532 138.184 358.517 139.488C358.502 140.798 358.494 142.004 358.494 143.119V151.993C358.494 153.108 358.502 154.313 358.517 155.624C358.532 156.935 358.554 158.223 358.592 159.496C358.622 160.769 358.667 161.982 358.712 163.127C358.765 164.272 358.818 165.221 358.885 165.967C358.133 165.899 357.404 165.869 356.682 165.869C355.96 165.869 355.231 165.899 354.479 165.967C354.546 165.214 354.599 164.265 354.651 163.127C354.704 161.982 354.742 160.777 354.772 159.496C354.802 158.223 354.832 156.927 354.847 155.624C354.862 154.321 354.87 153.108 354.87 151.993V143.119C354.87 142.011 354.862 140.798 354.847 139.488Z" fill="white"/>
<path d="M372.542 134.139C372.542 133.453 372.79 132.866 373.279 132.376C373.768 131.886 374.354 131.638 375.039 131.638C375.723 131.638 376.31 131.886 376.798 132.376C377.287 132.866 377.535 133.453 377.535 134.139C377.535 134.824 377.287 135.412 376.798 135.902C376.31 136.391 375.723 136.64 375.039 136.64C374.354 136.64 373.768 136.391 373.279 135.902C372.79 135.412 372.542 134.824 372.542 134.139ZM373.226 151.842C373.226 150.373 373.204 148.829 373.151 147.209C373.098 145.59 372.993 144.083 372.835 142.674C373.745 142.84 374.482 142.923 375.039 142.923C375.595 142.923 376.325 142.84 377.242 142.674C377.077 144.083 376.971 145.59 376.926 147.209C376.881 148.829 376.851 150.373 376.851 151.842V156.942C376.851 158.411 376.874 159.956 376.926 161.575C376.979 163.195 377.084 164.656 377.242 165.96C376.49 165.892 375.761 165.862 375.039 165.862C374.317 165.862 373.587 165.892 372.835 165.96C373.001 164.656 373.106 163.187 373.151 161.575C373.196 159.963 373.226 158.411 373.226 156.942V151.842Z" fill="white"/>
<path d="M388.643 154.389C388.643 152.264 389.004 150.434 389.718 148.897C390.433 147.36 391.373 146.094 392.531 145.1C393.689 144.106 395.02 143.367 396.517 142.893C398.021 142.418 399.555 142.185 401.119 142.185C402.916 142.185 404.518 142.403 405.939 142.847C407.361 143.292 408.376 143.789 409 144.347C408.775 144.836 408.564 145.349 408.391 145.891C408.211 146.433 408.053 146.991 407.925 147.586H407.534C407.308 147.164 406.992 146.727 406.601 146.29C406.21 145.846 405.744 145.439 405.21 145.062C404.669 144.686 404.074 144.377 403.42 144.128C402.766 143.88 402.052 143.759 401.269 143.759C399.803 143.759 398.54 144.03 397.479 144.565C396.419 145.107 395.554 145.846 394.885 146.795C394.216 147.744 393.727 148.859 393.418 150.155C393.11 151.443 392.952 152.844 392.952 154.343C392.952 157.711 393.667 160.249 395.103 161.967C396.539 163.685 398.645 164.543 401.412 164.543C402.067 164.543 402.736 164.453 403.42 164.272C404.105 164.091 404.774 163.85 405.428 163.534C406.082 163.225 406.692 162.856 407.263 162.434C407.835 162.012 408.331 161.553 408.76 161.063L409.008 161.214C408.842 161.997 408.745 162.796 408.714 163.617C407.737 164.4 406.519 165.071 405.067 165.628C403.616 166.186 402.104 166.465 400.54 166.465C399.134 166.465 397.727 166.261 396.306 165.854C394.885 165.448 393.606 164.762 392.463 163.798C391.32 162.833 390.403 161.583 389.696 160.046C388.997 158.509 388.643 156.633 388.643 154.411V154.389Z" fill="white"/>
<path d="M152.682 116.503C179.658 116.503 201.526 94.597 201.526 67.5742C201.526 40.5514 179.658 18.6451 152.682 18.6451C125.707 18.6451 103.839 40.5514 103.839 67.5742C103.839 94.597 125.707 116.503 152.682 116.503Z" fill="white"/>
<path d="M360.089 116.503C387.064 116.503 408.932 94.597 408.932 67.5742C408.932 40.5514 387.064 18.6451 360.089 18.6451C333.113 18.6451 311.245 40.5514 311.245 67.5742C311.245 94.597 333.113 116.503 360.089 116.503Z" fill="white"/>
<path d="M256.386 18.645C229.411 18.645 207.542 40.552 207.542 67.5742C207.542 89.8428 222.387 108.631 242.706 114.552C244.188 114.228 245.444 113.58 246.466 112.586C247.97 111.117 249.159 109.219 250.023 106.891C250.881 104.563 251.445 101.949 251.7 99.0561C251.956 96.1633 252.092 93.293 252.092 90.4454V52.3794C252.092 49.7879 252.069 47.1588 252.024 44.4844C251.979 41.8101 251.934 39.1734 251.896 36.5895C251.851 33.998 251.768 31.5421 251.64 29.2068C251.512 26.879 251.317 24.8073 251.061 22.9918C253.475 23.4212 255.408 23.6397 256.874 23.6397C258.341 23.6397 260.281 23.4287 262.687 22.9918C262.259 26.7057 261.973 30.6984 261.845 34.9698C261.717 39.2412 261.65 43.3243 261.65 47.204V60.6661C261.65 65.6758 261.732 70.6327 261.905 75.552C262.078 80.4713 262.161 85.3077 262.161 90.0537C262.161 93.6772 261.966 97.022 261.582 100.088C261.191 103.154 260.01 106.152 258.025 109.083C256.13 111.848 253.565 114.13 250.332 115.946C250.242 115.999 250.151 116.036 250.061 116.089C252.129 116.353 254.235 116.496 256.378 116.496C283.353 116.496 305.222 94.5888 305.222 67.5666C305.222 40.5445 283.353 18.6375 256.378 18.6375L256.386 18.645Z" fill="white"/>
<path d="M250.279 6.60675C250.279 4.79121 250.926 3.23934 252.22 1.94361C253.513 0.647868 255.062 0 256.874 0C258.687 0 260.236 0.647868 261.529 1.94361C262.823 3.23934 263.47 4.79121 263.47 6.60675C263.47 8.42229 262.823 9.97416 261.529 11.2699C260.236 12.5656 258.687 13.2135 256.874 13.2135C255.062 13.2135 253.513 12.5656 252.22 11.2699C250.926 9.97416 250.279 8.42229 250.279 6.60675Z" fill="#E6B23A"/>
<path d="M14.5894 40.6726H14.845C19.4098 32.9057 25.832 29.0185 34.1042 29.0185C36.255 29.0185 38.3682 29.3424 40.4362 29.9903C42.5043 30.6381 44.3768 31.5271 46.0613 32.642C47.7383 33.7645 49.1822 35.128 50.3929 36.7176C51.5962 38.3146 52.4159 40.0172 52.852 41.8327H53.1077C55.1758 37.6894 57.9958 34.5178 61.5754 32.3181C65.1475 30.1183 69.2686 29.0185 73.9161 29.0185C75.939 29.0185 77.8566 29.2219 79.6615 29.6136C71.2539 22.7583 60.5301 18.6451 48.8438 18.6451C35.6233 18.6451 23.6361 23.9109 14.8375 32.4537C14.6721 35.1958 14.5894 37.938 14.5894 40.6726Z" fill="white"/>
<path d="M93.6713 48.1155C93.6863 48.56 93.6938 49.0195 93.6938 49.4791C93.6938 50.9481 93.6487 52.5451 93.566 54.2703C93.4757 55.9954 93.393 58.0068 93.3103 60.2894C93.22 62.5796 93.1373 65.1635 93.0546 68.0563C92.9644 70.9491 92.9268 74.2939 92.9268 78.0907C92.9268 80.4186 92.9493 82.6635 92.9944 84.8256C93.017 85.933 93.0546 87.0931 93.1148 88.2909C96.0552 82.0005 97.7021 74.9795 97.7021 67.5667C97.7021 60.651 96.2657 54.0744 93.6863 48.108L93.6713 48.1155Z" fill="white"/>
<path d="M4.83548 80.2302C4.96332 75.9588 5.031 71.8757 5.031 67.996V54.5339C5.031 51.8295 5.00092 49.0271 4.93324 46.1342C1.77476 52.6129 0 59.8901 0 67.5817C0 74.8363 1.57924 81.7143 4.3993 87.9067C4.60235 85.5186 4.74523 82.9648 4.82796 80.2377L4.83548 80.2302Z" fill="white"/>
<path d="M90.4605 91.5604H84.9031C83.9555 91.5604 83.008 91.6432 82.0604 91.8165C82.3161 89.662 82.5944 85.3002 82.9027 78.7386C83.2035 72.1771 83.3539 63.0316 83.3539 51.2871C83.3539 49.1325 83.1133 47.0985 82.6395 45.2001C82.1657 43.3017 81.4137 41.6594 80.3759 40.2808C79.3381 38.9022 77.9619 37.8024 76.2398 36.9812C74.5177 36.1601 72.3594 35.7533 69.78 35.7533C66.6817 35.7533 64.0496 36.356 61.8988 37.5688C59.7405 38.7817 58.0635 40.2055 56.8603 41.8402C56.1685 42.7894 55.6345 43.7387 55.2435 44.6879C54.8524 45.6371 54.5516 47.0835 54.3411 49.0271C54.123 50.9707 53.9726 53.6902 53.8898 57.1857C53.7996 60.6812 53.762 65.495 53.762 71.6196C53.762 75.3335 53.8297 78.7235 53.9575 81.7821C54.0854 84.8482 54.2358 88.193 54.4087 91.8165C52.4234 91.6432 50.5283 91.5604 48.7235 91.5604C46.9186 91.5604 45.016 91.6432 43.0382 91.8165C43.4669 87.0705 43.7677 82.2341 43.9406 77.3148C44.1136 72.3955 44.1963 67.5591 44.1963 62.8131C44.1963 58.7602 44.1738 55.5811 44.1286 53.2985C44.0835 51.0159 43.9782 49.2003 43.8053 47.8594C43.6323 46.5185 43.3917 45.4186 43.0909 44.5598C42.7901 43.701 42.3764 42.7442 41.8651 41.7122C40.9175 40.0699 39.4285 38.6687 37.4056 37.501C35.3827 36.3334 33.2921 35.7533 31.1338 35.7533C25.4485 35.7533 21.2673 37.6065 18.5976 41.3204C15.928 45.0344 14.5894 50.255 14.5894 56.9898V67.996C14.5894 71.8833 14.6571 75.9588 14.7849 80.2302C14.9128 84.5016 15.191 88.3662 15.6272 91.8165C13.6418 91.6432 11.7092 91.5604 9.81407 91.5604C8.66348 91.5604 7.50538 91.598 6.32471 91.6583C14.7172 106.491 30.6149 116.503 48.8513 116.503C67.0878 116.503 83.0305 106.461 91.4155 91.5905C91.0997 91.5679 90.7838 91.5604 90.4755 91.5604H90.4605Z" fill="white"/>
</g>
<defs>
<clipPath id="clip0_2001_202">
<rect width="409" height="179" fill="white"/>
</clipPath>
</defs>
</svg>
