<svg width="25" height="25" viewBox="0 0 25 25" fill="none" xmlns="http://www.w3.org/2000/svg">
<path d="M12.5 0C19.4034 1.48993e-05 25 5.59654 25 12.5C25 19.4035 19.4034 25 12.5 25C10.323 25 8.27671 24.4432 6.49414 23.4648L0 25L1.66504 18.7363C0.606361 16.9009 0 14.7712 0 12.5C3.22147e-07 5.59653 5.59654 0 12.5 0ZM12.5 2.23828C6.833 2.23828 2.23926 6.83299 2.23926 12.5C2.23933 14.6848 2.92188 16.7099 4.08594 18.374L3.00977 22.041L6.84668 21.0645C8.46781 22.1369 10.4109 22.7607 12.5 22.7607C18.1669 22.7607 22.7606 18.1668 22.7607 12.5C22.7607 6.83299 18.167 2.2383 12.5 2.23828ZM9.06445 6.33105C9.21758 6.31855 9.35855 6.40799 9.42383 6.54688L10.8496 9.57129C10.9167 9.71427 10.8871 9.88439 10.7754 9.99609L9.71289 11.0586C9.48303 11.2885 9.41589 11.6466 9.57422 11.9307C9.96205 12.6261 10.4838 13.2959 11.0879 13.9121C11.7042 14.5162 12.3739 15.0383 13.0693 15.4258C13.3533 15.5839 13.7113 15.5169 13.9414 15.2871L15.0039 14.2236C15.1157 14.112 15.2858 14.0827 15.4287 14.1504L18.4531 15.5762C18.5918 15.6415 18.6804 15.7819 18.668 15.9346C18.6353 16.3325 18.4756 17.1298 17.7607 17.8447C15.7427 19.8628 12.1192 17.5794 11.9717 17.4912C11.0804 17.0124 10.2328 16.3721 9.42969 15.5693C8.62712 14.7667 7.98656 13.9194 7.50781 13.0283C7.41927 12.8811 5.1359 9.25668 7.1543 7.23828C7.86912 6.52358 8.66655 6.36371 9.06445 6.33105Z" fill="white"/>
</svg>
